<svg width="273" height="172" viewBox="0 0 273 172" fill="none" xmlns="http://www.w3.org/2000/svg">
<g clip-path="url(#clip0_12_410)">
<path d="M228.925 11H37.0746C36.7897 10.9996 36.5166 10.8659 36.3151 10.628C36.1136 10.3902 36.0003 10.0677 36 9.73133V2.26867C36.0003 1.93231 36.1136 1.60983 36.3151 1.37199C36.5166 1.13414 36.7897 1.00037 37.0746 1H228.925C229.21 1.00037 229.483 1.13415 229.685 1.37199C229.886 1.60983 230 1.93231 230 2.26867V9.73134C230 10.0677 229.886 10.3902 229.685 10.628C229.483 10.8659 229.21 10.9996 228.925 11Z" fill="#000712"/>
<path d="M44.1281 8.25038C45.3035 8.25038 46.2563 7.2989 46.2563 6.12519C46.2563 4.95148 45.3035 4 44.1281 4C42.9528 4 42 4.95148 42 6.12519C42 7.2989 42.9528 8.25038 44.1281 8.25038Z" fill="white"/>
<path d="M52.2058 8.25038C53.3812 8.25038 54.334 7.2989 54.334 6.12519C54.334 4.95148 53.3812 4 52.2058 4C51.0305 4 50.0777 4.95148 50.0777 6.12519C50.0777 7.2989 51.0305 8.25038 52.2058 8.25038Z" fill="white"/>
<path d="M60.284 8.25038C61.4593 8.25038 62.4121 7.2989 62.4121 6.12519C62.4121 4.95148 61.4593 4 60.284 4C59.1087 4 58.1559 4.95148 58.1559 6.12519C58.1559 7.2989 59.1087 8.25038 60.284 8.25038Z" fill="white"/>
<path d="M223.991 4.00717H214.689C214.506 4.00677 214.332 3.9341 214.203 3.8051C214.074 3.67611 214.001 3.50133 214.001 3.31911C214.001 3.13688 214.074 2.9621 214.203 2.83311C214.332 2.70412 214.506 2.63145 214.689 2.63104H223.991C224.173 2.63091 224.349 2.70317 224.478 2.83194C224.607 2.96071 224.68 3.13547 224.68 3.31782C224.681 3.50016 224.608 3.67519 224.48 3.80445C224.351 3.9337 224.176 4.00662 223.993 4.00717H223.991Z" fill="white"/>
<path d="M223.991 6.58742H214.689C214.506 6.58702 214.332 6.51434 214.203 6.38535C214.074 6.25636 214.001 6.08158 214.001 5.89936C214.001 5.71713 214.074 5.54235 214.203 5.41336C214.332 5.28436 214.506 5.21169 214.689 5.21129H223.991C224.173 5.21116 224.349 5.28341 224.478 5.41219C224.607 5.54096 224.68 5.71571 224.68 5.89806C224.681 6.08041 224.608 6.25544 224.48 6.38469C224.351 6.51395 224.176 6.58686 223.993 6.58742H223.991Z" fill="white"/>
<path d="M223.991 9.16767H214.689C214.506 9.16767 214.331 9.09517 214.202 8.96614C214.073 8.8371 214 8.66209 214 8.4796C214 8.29712 214.073 8.1221 214.202 7.99307C214.331 7.86403 214.506 7.79154 214.689 7.79154H223.991C224.174 7.79119 224.349 7.86336 224.478 7.99215C224.608 8.12095 224.681 8.29582 224.681 8.47831C224.681 8.6608 224.609 8.83594 224.48 8.96522C224.351 9.0945 224.176 9.16732 223.993 9.16767H223.991Z" fill="white"/>
<path d="M83.3035 172.383C82.2168 172.119 81.2593 171.479 80.6019 170.575C79.9445 169.672 79.6302 168.565 79.7149 167.451C79.7188 167.406 79.7401 167.364 79.7745 167.334C79.8088 167.304 79.8535 167.288 79.899 167.291C79.9446 167.293 79.9874 167.313 80.0186 167.346C80.0498 167.379 80.0669 167.423 80.0662 167.469C79.9854 168.506 80.2784 169.537 80.8922 170.377C81.5061 171.217 82.4004 171.81 83.4137 172.049C83.6339 172.102 83.5224 172.435 83.3035 172.383Z" fill="white"/>
<path d="M86.7409 162.747C87.1401 162.937 87.5801 163.024 88.0215 163.002C88.4629 162.98 88.8919 162.848 89.2698 162.619C89.4632 162.501 89.6202 162.816 89.428 162.933C89.0092 163.184 88.5353 163.328 88.0477 163.354C87.5601 163.38 87.0736 163.286 86.6306 163.081C86.5872 163.065 86.5515 163.033 86.5308 162.992C86.51 162.951 86.5057 162.903 86.5188 162.859C86.5336 162.815 86.5653 162.779 86.6068 162.758C86.6484 162.737 86.6966 162.733 86.7409 162.747Z" fill="white"/>
<path d="M88.9084 61.3933H45.8685C44.5385 61.3917 43.2633 60.8634 42.3229 59.9242C41.3824 58.9851 40.8534 57.7117 40.8519 56.3835V32.9745C40.8534 31.6463 41.3824 30.373 42.3229 29.4338C43.2634 28.4947 44.5385 27.9665 45.8685 27.965H88.9084C90.2384 27.9665 91.5135 28.4947 92.454 29.4338C93.3945 30.373 93.9235 31.6463 93.925 32.9745V56.3835C93.9235 57.7117 93.3945 58.985 92.454 59.9242C91.5136 60.8634 90.2385 61.3917 88.9084 61.3933Z" fill="#000712"/>
<path d="M154.618 61.3933H111.578C110.248 61.3917 108.973 60.8634 108.032 59.9242C107.092 58.9851 106.563 57.7117 106.561 56.3835V32.9745C106.563 31.6463 107.092 30.373 108.032 29.4338C108.973 28.4947 110.248 27.9665 111.578 27.965H154.618C155.948 27.9665 157.223 28.4947 158.164 29.4338C159.104 30.373 159.633 31.6463 159.635 32.9745V56.3835C159.633 57.7117 159.104 58.985 158.164 59.9242C157.223 60.8634 155.948 61.3917 154.618 61.3933Z" fill="#0374EA"/>
<path d="M220.327 61.3933H177.288C175.957 61.3917 174.682 60.8634 173.742 59.9242C172.801 58.9851 172.272 57.7117 172.271 56.3835V32.9745C172.272 31.6463 172.801 30.373 173.742 29.4338C174.682 28.4947 175.958 27.9665 177.288 27.965H220.327C221.657 27.9665 222.933 28.4947 223.873 29.4338C224.814 30.373 225.343 31.6463 225.344 32.9745V56.3835C225.343 57.7117 224.814 58.985 223.873 59.9242C222.933 60.8634 221.657 61.3917 220.327 61.3933Z" fill="#000712"/>
<path d="M88.9084 113.551H45.8685C44.5385 113.55 43.2633 113.022 42.3229 112.082C41.3824 111.143 40.8534 109.87 40.8519 108.542V85.1326C40.8534 83.8044 41.3824 82.5311 42.3229 81.5919C43.2634 80.6528 44.5385 80.1245 45.8685 80.1231H88.9084C90.2384 80.1245 91.5135 80.6528 92.454 81.5919C93.3945 82.5311 93.9235 83.8044 93.925 85.1325V108.542C93.9235 109.87 93.3945 111.143 92.454 112.082C91.5136 113.022 90.2385 113.55 88.9084 113.551Z" fill="#000712"/>
<path d="M154.618 113.551H111.578C110.248 113.55 108.973 113.022 108.032 112.082C107.092 111.143 106.563 109.87 106.561 108.542V85.1326C106.563 83.8044 107.092 82.5311 108.032 81.5919C108.973 80.6528 110.248 80.1245 111.578 80.1231H154.618C155.948 80.1245 157.223 80.6528 158.164 81.5919C159.104 82.5311 159.633 83.8044 159.635 85.1325V108.542C159.633 109.87 159.104 111.143 158.164 112.082C157.223 113.022 155.948 113.55 154.618 113.551Z" fill="#000712"/>
<path d="M157.657 117.859C161.902 117.859 165.344 114.422 165.344 110.183C165.344 105.943 161.902 102.506 157.657 102.506C153.411 102.506 149.97 105.943 149.97 110.183C149.97 114.422 153.411 117.859 157.657 117.859Z" fill="#0374EA"/>
<path d="M160.849 109.538H158.235V106.928C158.235 106.847 158.22 106.767 158.189 106.693C158.158 106.618 158.112 106.551 158.055 106.494C157.998 106.437 157.93 106.391 157.856 106.36C157.781 106.33 157.701 106.314 157.62 106.314C157.54 106.314 157.46 106.33 157.385 106.36C157.31 106.391 157.243 106.437 157.186 106.494C157.128 106.551 157.083 106.618 157.052 106.693C157.021 106.767 157.005 106.847 157.005 106.928V109.538H154.392C154.311 109.538 154.231 109.554 154.156 109.585C154.082 109.615 154.014 109.661 153.957 109.718C153.9 109.775 153.855 109.842 153.824 109.917C153.793 109.992 153.777 110.071 153.777 110.152C153.777 110.233 153.793 110.313 153.824 110.387C153.855 110.462 153.9 110.529 153.957 110.586C154.014 110.643 154.082 110.689 154.156 110.719C154.231 110.75 154.311 110.766 154.392 110.766H157.005V113.376C157.005 113.457 157.021 113.537 157.052 113.611C157.083 113.686 157.128 113.753 157.186 113.81C157.243 113.867 157.31 113.913 157.385 113.944C157.46 113.974 157.54 113.99 157.62 113.99C157.784 113.99 157.94 113.926 158.055 113.81C158.171 113.695 158.235 113.539 158.235 113.376V110.766H160.849C160.93 110.766 161.01 110.75 161.084 110.719C161.159 110.689 161.227 110.643 161.284 110.586C161.341 110.529 161.386 110.462 161.417 110.387C161.448 110.313 161.464 110.233 161.464 110.152C161.464 110.071 161.448 109.991 161.417 109.917C161.386 109.842 161.341 109.775 161.284 109.718C161.227 109.661 161.159 109.615 161.084 109.585C161.01 109.554 160.93 109.538 160.849 109.538Z" fill="white"/>
<path d="M91.9474 66.3738C96.1929 66.3738 99.6345 62.937 99.6345 58.6974C99.6345 54.4578 96.1929 51.021 91.9474 51.021C87.7019 51.021 84.2603 54.4578 84.2603 58.6974C84.2603 62.937 87.7019 66.3738 91.9474 66.3738Z" fill="#0374EA"/>
<path d="M95.1395 58.0528H92.5259V55.4428C92.5259 55.3622 92.51 55.2823 92.4791 55.2078C92.4482 55.1333 92.4029 55.0656 92.3458 55.0085C92.2887 54.9515 92.2209 54.9063 92.1463 54.8754C92.0716 54.8445 91.9917 54.8286 91.9109 54.8286C91.8301 54.8286 91.7502 54.8445 91.6756 54.8754C91.6009 54.9063 91.5331 54.9515 91.476 55.0085C91.4189 55.0656 91.3736 55.1333 91.3427 55.2078C91.3118 55.2823 91.2959 55.3622 91.2959 55.4428V58.0528H88.6823C88.6015 58.0528 88.5216 58.0687 88.447 58.0995C88.3723 58.1304 88.3045 58.1756 88.2474 58.2327C88.1903 58.2897 88.145 58.3574 88.1141 58.4319C88.0832 58.5064 88.0673 58.5863 88.0673 58.6669C88.0673 58.8298 88.1321 58.986 88.2474 59.1012C88.3628 59.2164 88.5192 59.2811 88.6823 59.2811H91.2959V61.891C91.2959 61.9717 91.3118 62.0516 91.3427 62.1261C91.3736 62.2006 91.4189 62.2683 91.476 62.3253C91.5331 62.3824 91.6009 62.4276 91.6755 62.4585C91.7502 62.4893 91.8301 62.5052 91.9109 62.5052C91.9917 62.5052 92.0716 62.4893 92.1462 62.4585C92.2209 62.4276 92.2887 62.3824 92.3458 62.3253C92.4029 62.2683 92.4482 62.2006 92.4791 62.1261C92.51 62.0516 92.5259 61.9717 92.5259 61.8911V59.2811H95.1395C95.2203 59.2811 95.3002 59.2652 95.3749 59.2343C95.4495 59.2034 95.5173 59.1582 95.5744 59.1012C95.6315 59.0441 95.6768 58.9764 95.7077 58.9019C95.7386 58.8274 95.7545 58.7476 95.7545 58.6669C95.7545 58.504 95.6897 58.3478 95.5744 58.2326C95.459 58.1175 95.3026 58.0528 95.1395 58.0528Z" fill="white"/>
<path d="M91.0687 118.868C95.3141 118.868 98.7558 115.431 98.7558 111.191C98.7558 106.952 95.3141 103.515 91.0687 103.515C86.8232 103.515 83.3816 106.952 83.3816 111.191C83.3816 115.431 86.8232 118.868 91.0687 118.868Z" fill="#CBCBCB"/>
<path d="M206.729 106.779H179.767C178.934 106.779 178.135 106.448 177.546 105.859C176.957 105.271 176.625 104.473 176.625 103.641V88.9767C176.625 88.1447 176.957 87.347 177.546 86.7587C178.135 86.1704 178.934 85.8395 179.767 85.8386H206.729C207.562 85.8395 208.361 86.1704 208.95 86.7587C209.539 87.347 209.871 88.1447 209.872 88.9767V103.641C209.871 104.473 209.539 105.271 208.95 105.859C208.361 106.448 207.562 106.779 206.729 106.779Z" fill="#000712"/>
<path d="M207.126 100.823C209.381 100.823 211.209 98.9977 211.209 96.7462C211.209 94.4948 209.381 92.6697 207.126 92.6697C204.872 92.6697 203.044 94.4948 203.044 96.7462C203.044 98.9977 204.872 100.823 207.126 100.823Z" fill="#0374EA"/>
<path d="M208.822 96.4039H207.434V95.0179C207.434 94.975 207.425 94.9326 207.409 94.8931C207.392 94.8535 207.368 94.8175 207.338 94.7873C207.308 94.757 207.272 94.7329 207.232 94.7165C207.192 94.7002 207.15 94.6917 207.107 94.6917C207.02 94.6917 206.937 94.7261 206.876 94.7873C206.815 94.8484 206.78 94.9314 206.78 95.0179V96.4039H205.392C205.306 96.4039 205.223 96.4383 205.162 96.4994C205.1 96.5606 205.066 96.6436 205.066 96.7301C205.066 96.7729 205.074 96.8153 205.091 96.8549C205.107 96.8945 205.131 96.9304 205.162 96.9607C205.192 96.991 205.228 97.015 205.267 97.0314C205.307 97.0478 205.35 97.0562 205.392 97.0562H206.78V98.4423C206.78 98.4851 206.789 98.5275 206.805 98.5671C206.822 98.6066 206.846 98.6426 206.876 98.6729C206.906 98.7032 206.942 98.7272 206.982 98.7436C207.022 98.76 207.064 98.7684 207.107 98.7684C207.194 98.7684 207.277 98.734 207.338 98.6729C207.399 98.6117 207.434 98.5288 207.434 98.4423V97.0562H208.822C208.908 97.0562 208.991 97.0219 209.053 96.9607C209.114 96.8995 209.148 96.8166 209.148 96.7301C209.148 96.6872 209.14 96.6448 209.123 96.6053C209.107 96.5657 209.083 96.5297 209.053 96.4994C209.022 96.4692 208.986 96.4451 208.947 96.4288C208.907 96.4124 208.864 96.4039 208.822 96.4039Z" fill="white"/>
<path d="M217.714 102.618H195.495C194.552 102.617 193.647 102.242 192.981 101.576C192.314 100.911 191.939 100.008 191.938 99.0659V85.8212C191.938 85.6479 192.007 85.4818 192.13 85.3594C192.253 85.237 192.419 85.1682 192.593 85.1682C192.766 85.1682 192.933 85.237 193.056 85.3594C193.179 85.4818 193.248 85.6479 193.248 85.8212V89.3683L219.057 91.7112C219.573 91.7203 220.064 91.9311 220.425 92.2982C220.787 92.6652 220.99 93.1593 220.99 93.6742C220.99 93.7147 220.987 93.755 220.979 93.7948L219.679 100.722C219.661 101.23 219.446 101.712 219.079 102.066C218.713 102.419 218.223 102.617 217.714 102.618ZM193.248 90.6825V99.0659C193.249 99.6607 193.486 100.231 193.907 100.651C194.328 101.072 194.899 101.308 195.495 101.309H217.714C217.888 101.309 218.054 101.24 218.177 101.117C218.3 100.995 218.369 100.828 218.369 100.655C218.369 100.614 218.373 100.574 218.38 100.534L219.678 93.6237C219.665 93.4594 219.591 93.3061 219.469 93.1941C219.348 93.0822 219.19 93.02 219.025 93.0198C219.005 93.0198 218.985 93.0189 218.965 93.017L193.248 90.6825Z" fill="#0374EA"/>
<path d="M189.59 108.726C190.194 108.726 190.683 108.238 190.683 107.635C190.683 107.033 190.194 106.544 189.59 106.544C188.987 106.544 188.498 107.033 188.498 107.635C188.498 108.238 188.987 108.726 189.59 108.726Z" fill="#0374EA"/>
<path d="M216.84 108.726C217.443 108.726 217.932 108.238 217.932 107.635C217.932 107.033 217.443 106.544 216.84 106.544C216.237 106.544 215.748 107.033 215.748 107.635C215.748 108.238 216.237 108.726 216.84 108.726Z" fill="#0374EA"/>
<path d="M217.932 106.544H188.717C188.543 106.544 188.376 106.476 188.253 106.353C188.13 106.23 188.061 106.064 188.061 105.89C188.061 105.716 188.13 105.55 188.253 105.427C188.376 105.305 188.543 105.236 188.717 105.236H217.932C218.106 105.236 218.273 105.305 218.396 105.427C218.519 105.55 218.588 105.716 218.588 105.89C218.588 106.064 218.519 106.23 218.396 106.353C218.273 106.476 218.106 106.544 217.932 106.544Z" fill="#0374EA"/>
<path d="M194.34 86.2574H188.661C188.487 86.2571 188.321 86.1879 188.198 86.0652C188.076 85.9426 188.007 85.7763 188.007 85.603C188.007 85.4297 188.076 85.2635 188.198 85.1408C188.321 85.0181 188.487 84.949 188.661 84.9486H194.34C194.514 84.949 194.68 85.0181 194.803 85.1408C194.925 85.2635 194.994 85.4297 194.994 85.603C194.994 85.7763 194.925 85.9426 194.803 86.0652C194.68 86.1879 194.514 86.2571 194.34 86.2574Z" fill="#0374EA"/>
<path d="M198.897 106.211C198.74 106.211 198.589 106.155 198.47 106.053L194.162 102.357C194.097 102.301 194.043 102.233 194.004 102.156C193.965 102.079 193.942 101.995 193.935 101.91C193.928 101.824 193.939 101.738 193.966 101.656C193.993 101.574 194.035 101.498 194.091 101.433C194.148 101.368 194.216 101.314 194.293 101.275C194.37 101.237 194.454 101.213 194.54 101.207C194.626 101.201 194.712 101.211 194.794 101.238C194.876 101.265 194.951 101.308 195.017 101.364L199.324 105.061C199.426 105.148 199.498 105.264 199.531 105.393C199.565 105.523 199.558 105.659 199.511 105.784C199.465 105.91 199.381 106.018 199.271 106.094C199.161 106.17 199.03 106.211 198.897 106.211Z" fill="#0374EA"/>
<path d="M199.804 102.216C199.718 102.216 199.633 102.199 199.553 102.166C199.474 102.133 199.402 102.085 199.341 102.024C199.28 101.964 199.232 101.891 199.199 101.812C199.166 101.733 199.149 101.648 199.149 101.562V91.0565C199.149 90.883 199.218 90.7165 199.341 90.5938C199.464 90.4711 199.63 90.4021 199.804 90.4021C199.978 90.4021 200.145 90.4711 200.268 90.5938C200.391 90.7165 200.46 90.883 200.46 91.0565V101.562C200.46 101.647 200.443 101.733 200.41 101.812C200.377 101.891 200.329 101.963 200.268 102.024C200.207 102.085 200.135 102.133 200.055 102.166C199.976 102.199 199.89 102.216 199.804 102.216Z" fill="#0374EA"/>
<path d="M213.648 102.216C213.561 102.216 213.476 102.199 213.397 102.166C213.317 102.133 213.245 102.085 213.184 102.024C213.123 101.964 213.075 101.891 213.042 101.812C213.009 101.733 212.992 101.648 212.992 101.562V91.9291C212.993 91.7558 213.062 91.5897 213.185 91.4673C213.308 91.3449 213.474 91.2762 213.648 91.2762C213.821 91.2762 213.988 91.3449 214.11 91.4673C214.233 91.5897 214.302 91.7558 214.303 91.9291V101.562C214.303 101.647 214.286 101.733 214.253 101.812C214.22 101.891 214.172 101.964 214.111 102.024C214.05 102.085 213.978 102.133 213.898 102.166C213.819 102.199 213.734 102.216 213.648 102.216Z" fill="#0374EA"/>
<path d="M36.5 10.5H229.5V167C229.5 169.485 227.485 171.5 225 171.5H41C38.5147 171.5 36.5 169.485 36.5 167V10.5Z" stroke="#000712"/>
</g>
<defs>
<clipPath id="clip0_12_410">
<rect width="271.182" height="172" fill="white" transform="translate(0.908752)"/>
</clipPath>
</defs>
</svg>
