<svg width="131" height="138" viewBox="0 0 131 138" fill="none" xmlns="http://www.w3.org/2000/svg">
<path d="M50.083 89.9229H80.6732" stroke="#868686" stroke-width="2" stroke-linecap="round"/>
<path d="M6.58379 72.7868C10.4288 53.5616 12.3514 43.949 18.7038 37.7578C19.8779 36.6135 21.1481 35.5722 22.5005 34.6453C29.8172 29.6304 39.6202 29.6304 59.2261 29.6304H71.4158C91.0217 29.6304 100.825 29.6304 108.141 34.6453C109.494 35.5722 110.764 36.6135 111.938 37.7578C118.291 43.949 120.213 53.5616 124.058 72.7868C129.578 100.388 132.338 114.189 125.985 123.968C124.834 125.739 123.491 127.377 121.981 128.852C113.638 137 99.5636 137 71.4158 137H59.2261C31.0783 137 17.0044 137 8.66123 128.852C7.15057 127.377 5.80776 125.739 4.65729 123.968C-1.69657 114.189 1.06355 100.388 6.58379 72.7868Z" stroke="#868686" stroke-width="2"/>
<path d="M89.0266 71.2257C89.0266 72.2917 88.1624 73.156 87.0963 73.156C86.0302 73.156 85.166 72.2917 85.166 71.2257C85.166 70.1596 86.0302 69.2954 87.0963 69.2954C88.1624 69.2954 89.0266 70.1596 89.0266 71.2257Z" fill="#868686" stroke="#868686"/>
<path d="M46.0788 71.2257C46.0788 72.2917 45.2146 73.156 44.1485 73.156C43.0824 73.156 42.2182 72.2917 42.2182 71.2257C42.2182 70.1596 43.0824 69.2954 44.1485 69.2954C45.2146 69.2954 46.0788 70.1596 46.0788 71.2257Z" fill="#868686" stroke="#868686"/>
<path d="M43.8466 29.632V22.474C43.8466 10.6142 53.4608 1 65.3205 1C77.1803 1 86.7945 10.6142 86.7945 22.474V29.632" stroke="#868686" stroke-width="2" stroke-linecap="round"/>
</svg>
