<svg width="211" height="172" viewBox="0 0 211 172" fill="none" xmlns="http://www.w3.org/2000/svg">
<g clip-path="url(#clip0_12_469)">
<path d="M195.328 13.7492H29.8363C23.7655 13.7492 18.829 18.6857 18.829 24.7565V138.163C18.829 144.234 23.7655 149.171 29.8363 149.171H195.328C201.399 149.171 206.336 144.234 206.336 138.163V24.7565C206.336 18.6857 201.399 13.7492 195.328 13.7492Z" fill="#000712"/>
<path d="M177.374 22.4845H11.8819C5.81105 22.4845 0.874512 27.421 0.874512 33.4918V146.898C0.874512 152.969 5.81105 157.906 11.8819 157.906H177.374C183.445 157.906 188.381 152.969 188.381 146.898V33.4918C188.381 27.421 183.445 22.4845 177.374 22.4845ZM187.224 113.52C187.224 137.394 167.87 156.748 143.995 156.748H11.8819C6.44191 156.748 2.03196 152.338 2.03196 146.898V33.4918C2.03196 28.0518 6.44189 23.6419 11.8818 23.6419H177.374C182.814 23.6419 187.224 28.0519 187.224 33.4918V113.52Z" fill="#2173FF"/>
<path d="M24.5132 133.329L23.5338 132.712C24.1705 131.7 24.8275 130.72 25.4859 129.797L26.428 130.47C25.7823 131.374 25.1383 132.336 24.5132 133.329Z" fill="#CCCCCC"/>
<path d="M30.8953 125.081L30.0668 124.272C31.8329 122.462 33.6917 120.908 35.5912 119.654L36.2293 120.62C34.3984 121.829 32.6038 123.33 30.8953 125.081ZM59.771 117.775C58.3889 117.775 57.1297 117.598 56.1871 117.443L56.3741 116.301C57.3292 116.458 58.4796 116.617 59.771 116.617C60.9115 116.617 62.0325 116.492 63.1979 116.234L63.4477 117.364C62.1992 117.64 60.9966 117.775 59.771 117.775ZM42.452 117.622L42.1038 116.518C43.3472 116.126 44.6352 115.832 45.9319 115.644C47.0456 115.483 48.1104 115.404 49.1867 115.404H49.2579V116.562H49.1867C48.1663 116.562 47.1561 116.636 46.0978 116.789C44.8627 116.968 43.6357 117.248 42.452 117.622ZM70.0405 114.277L69.3007 113.386C70.8979 112.06 72.0426 110.456 73.2549 108.757L73.7384 108.081L74.6777 108.758L74.197 109.429C72.9401 111.191 71.7527 112.854 70.0405 114.277ZM79.3227 103.664L78.6106 102.751C80.1707 101.534 81.9335 100.547 83.9991 99.7356C84.351 99.5971 84.6872 99.4737 85.0099 99.3637L85.3835 100.459C85.0766 100.564 84.7573 100.681 84.4227 100.813C82.4619 101.583 80.7938 102.516 79.3227 103.664ZM93.296 99.6438C92.9066 99.6438 92.5373 99.6401 92.1824 99.6361L92.1959 98.4787C92.5588 98.4829 92.9374 98.4838 93.3381 98.4863C94.7002 98.4863 96.5971 98.4476 99.1991 98.1464L99.3325 99.2959C96.6446 99.6073 94.7177 99.6398 93.296 99.6438ZM106.373 98.128L106.144 96.9937C108.223 96.5733 110.641 96.0728 113.035 95.4551L113.325 96.5758C110.903 97.2006 108.467 97.7047 106.373 98.128ZM120.143 94.3816L119.71 93.308C122.031 92.3724 124.046 91.3173 125.871 90.0818L126.52 91.0403C124.626 92.3221 122.54 93.4151 120.143 94.3816ZM131.837 86.111L130.898 85.4345C131.221 84.9864 131.5 84.5492 131.77 84.1265C132.567 82.8786 133.391 81.588 135.354 80.0039L135.491 79.894L136.208 80.8022L136.081 80.9042C134.265 82.3702 133.527 83.526 132.746 84.7495C132.467 85.1856 132.179 85.6366 131.837 86.111ZM142.221 77.4302L141.799 76.3524C143.861 75.5437 146.191 74.8929 148.724 74.4179L148.937 75.5555C146.476 76.0173 144.216 76.648 142.221 77.4302Z" fill="#CCCCCC"/>
<path d="M156.012 74.7055L155.94 73.5503C157.064 73.48 158.24 73.4336 159.434 73.4122L159.455 74.5696C158.278 74.5905 157.119 74.6363 156.012 74.7055Z" fill="#CCCCCC"/>
<path d="M37.4198 35.0261H21.1808C20.3648 35.0261 19.6993 35.6917 19.6993 36.5077C19.6993 37.3294 20.3648 37.995 21.1808 37.995H37.4198C38.2358 37.995 38.9014 37.3294 38.9014 36.5077C38.9014 35.6917 38.2358 35.0261 37.4198 35.0261Z" fill="#E6E6E6"/>
<path d="M64.6199 35.0261H48.3808C47.5648 35.0261 46.8993 35.6917 46.8993 36.5077C46.8993 37.3294 47.5648 37.995 48.3808 37.995H64.6199C65.4358 37.995 66.1014 37.3294 66.1014 36.5077C66.1014 35.6917 65.4358 35.0261 64.6199 35.0261Z" fill="#E6E6E6"/>
<path d="M91.8199 35.0261H75.5808C74.7649 35.0261 74.0993 35.6917 74.0993 36.5077C74.0993 37.3294 74.7648 37.995 75.5808 37.995H91.8199C92.6359 37.995 93.3014 37.3294 93.3014 36.5077C93.3014 35.6917 92.6359 35.0261 91.8199 35.0261Z" fill="#E6E6E6"/>
<path d="M167.258 132.442H19.683V133.599H167.258V132.442Z" fill="#E6E6E6"/>
<path d="M159.462 47.9483C148.958 48.2203 141.123 51.3107 136.157 57.1211C134.323 59.274 133.576 60.9696 132.789 62.7636C132.008 64.5345 131.209 66.3575 129.351 68.7361V66.7684C130.503 65.0785 131.122 63.6665 131.73 62.2949C132.552 60.4198 133.333 58.6489 135.277 56.3746C140.463 50.298 148.588 47.0745 159.427 46.7909L159.462 47.9483Z" fill="#CCCCCC"/>
<path d="M132.789 62.7637C132.008 64.5346 131.209 66.3575 129.351 68.7361C129.131 69.0197 128.894 69.3148 128.639 69.6216C121.938 77.5906 112.985 80.2064 105.786 82.313C105.334 82.4461 104.894 82.5676 104.466 82.6833C98.0654 84.4195 94.5583 84.3558 91.9482 84.3153C89.3266 84.2691 87.5962 84.2401 84.5001 86.011C78.8228 89.2461 76.4963 93.98 74.2451 98.5578C71.9244 103.269 69.7368 107.719 64.1579 109.808C60.2863 111.255 57.5663 110.537 54.69 109.785C52.2188 109.131 47.7651 93.0344 43.8216 90.6871C35.6789 92.3943 30.7309 119.004 24.5559 133.252L23.491 132.789C29.8281 118.182 35.0481 91.3468 43.5785 89.5528C47.3807 88.7542 52.3867 107.979 54.9852 108.662C57.682 109.374 60.2226 110.04 63.7528 108.72C68.9035 106.799 70.8943 102.742 73.2034 98.0485C75.4257 93.5344 77.9431 88.4185 83.9213 85.004C87.2953 83.0769 89.2572 83.1116 91.9656 83.1579C94.5467 83.2042 98.0306 83.2621 104.466 81.4854C104.79 81.3928 105.12 81.3002 105.461 81.2018C112.51 79.1415 121.278 76.5778 127.748 68.8808C128.385 68.1227 128.911 67.4224 129.351 66.7684C130.503 65.0786 131.122 63.6665 131.73 62.2949C132.552 60.4198 133.576 60.9696 132.789 62.7637Z" fill="#0374EA"/>
<path d="M174.7 140.956C174.83 141.275 175.277 141.275 175.406 140.956C176.31 138.728 177.597 136.233 178.996 134.327C179.22 134.021 178.911 133.613 178.555 133.742L175.555 134.828V116.258H174.551V134.828L171.55 133.742C171.194 133.613 170.886 134.021 171.11 134.326C172.509 136.233 173.796 138.728 174.7 140.956Z" fill="#030C16"/>
</g>
<defs>
<clipPath id="clip0_12_469">
<rect width="210.59" height="172" fill="white" transform="translate(0.205078)"/>
</clipPath>
</defs>
</svg>
