<svg width="343" height="204" viewBox="0 0 343 204" fill="none" xmlns="http://www.w3.org/2000/svg">
<g clip-path="url(#clip0_13_581)">
<path d="M262.135 201.693C257.767 198.002 255.113 192.171 255.809 186.494C256.505 180.817 260.815 175.598 266.406 174.393C271.997 173.187 278.37 176.524 280.068 181.986C281.002 171.456 282.079 160.486 287.677 151.519C292.746 143.4 301.525 137.591 311.04 136.552C320.555 135.512 330.573 139.438 336.507 146.948C342.441 154.458 343.894 165.375 339.738 173.998C336.676 180.349 331.036 185.076 325.126 188.922C306.029 201.243 283.124 206.254 260.627 203.032L262.135 201.693Z" fill="#D5D5D5"/>
<path d="M327.098 139.655C319.247 146.05 312.045 153.202 305.595 161.008C295.501 173.182 287.333 186.832 281.376 201.481C280.94 202.55 282.675 203.015 283.106 201.958C292.854 178.15 308.415 157.166 328.367 140.924C329.263 140.195 327.987 138.932 327.098 139.655Z" fill="white"/>
<path d="M110.735 200.69C116.735 195.62 120.379 187.611 119.424 179.814C118.468 172.017 112.548 164.849 104.869 163.193C97.1903 161.538 88.4369 166.121 86.1046 173.622C84.821 159.16 83.3419 144.092 75.653 131.777C68.6909 120.625 56.6325 112.646 43.5639 111.218C30.4952 109.791 16.7356 115.182 8.5852 125.497C0.43477 135.812 -1.56083 150.808 4.14752 162.65C8.35266 171.374 16.1 177.867 24.2173 183.148C50.1143 200 82.2394 207.028 112.807 202.529" fill="#D5D5D5"/>
<path d="M21.5086 115.481C32.2918 124.264 42.1843 134.087 51.043 144.809C59.903 155.519 67.7034 167.063 74.3344 179.28C78.0408 186.132 81.3704 193.183 84.3083 200.398C84.9073 201.866 82.5237 202.505 81.9314 201.054C76.7277 188.332 70.2898 176.151 62.7099 164.686C55.1668 153.262 46.5334 142.596 36.9309 132.84C31.4996 127.324 25.7692 122.111 19.7656 117.224C18.535 116.222 20.2881 114.487 21.5086 115.481Z" fill="white"/>
<path d="M245.822 203.553H102.668V56.6733C102.668 25.4235 128.092 0 159.342 0H189.149C220.399 0 245.822 25.4235 245.822 56.6733V203.553Z" fill="#D5D5D5"/>
<path d="M216.015 203.553H102.668V56.6734C102.637 44.6991 106.429 33.0275 113.491 23.3579C113.752 23.0031 114.011 22.6528 114.279 22.3064C117.695 17.8259 121.761 13.8799 126.341 10.5989C126.6 10.4106 126.86 10.2256 127.123 10.0406C130.956 7.38832 135.102 5.22012 139.467 3.58536C139.726 3.48712 139.99 3.38868 140.254 3.29427C144.201 1.8855 148.293 0.920505 152.455 0.417093C152.712 0.381854 152.977 0.354278 153.242 0.326703C157.297 -0.106866 161.387 -0.106866 165.442 0.326703C165.706 0.354278 165.971 0.38185 166.232 0.41747C170.392 0.920915 174.483 1.88579 178.429 3.29428C178.693 3.3887 178.957 3.48713 179.217 3.58556C183.528 5.1997 187.625 7.33555 191.417 9.94546C191.681 10.1264 191.944 10.3114 192.204 10.4964C194.772 12.3291 197.183 14.3708 199.414 16.6007C201.203 18.3893 202.871 20.2958 204.405 22.3075C204.672 22.6528 204.931 23.0031 205.191 23.3574C212.254 33.0271 216.046 44.6989 216.015 56.6734V203.553Z" fill="#000712"/>
<path d="M206.798 137.859C210.264 137.859 213.073 135.05 213.073 131.584C213.073 128.118 210.264 125.309 206.798 125.309C203.332 125.309 200.523 128.118 200.523 131.584C200.523 135.05 203.332 137.859 206.798 137.859Z" fill="#0374EA"/>
<path d="M234.095 199.154H229.287L226.999 180.608L234.096 180.608L234.095 199.154Z" fill="#FFB8B8"/>
<path d="M225.852 197.78H235.125V203.619H220.014C220.014 202.852 220.165 202.093 220.458 201.384C220.751 200.676 221.181 200.032 221.724 199.49C222.266 198.948 222.909 198.518 223.618 198.225C224.326 197.931 225.085 197.78 225.852 197.78Z" fill="#000712"/>
<path d="M258.02 199.154H253.211L250.924 180.608L258.021 180.608L258.02 199.154Z" fill="#FFB8B8"/>
<path d="M249.777 197.78H259.05V203.619H243.938C243.938 202.852 244.089 202.093 244.382 201.384C244.676 200.676 245.106 200.032 245.648 199.49C246.19 198.948 246.834 198.518 247.542 198.225C248.251 197.931 249.01 197.78 249.777 197.78Z" fill="#000712"/>
<path d="M209.974 132.827C209.628 132.318 209.398 131.738 209.301 131.13C209.203 130.522 209.239 129.9 209.408 129.307C209.577 128.715 209.873 128.167 210.277 127.701C210.68 127.236 211.181 126.865 211.743 126.614L228.089 81.5625L236.132 85.9518L217.469 129.004C217.828 129.977 217.818 131.048 217.44 132.014C217.062 132.98 216.343 133.773 215.42 134.245C214.496 134.716 213.431 134.832 212.428 134.571C211.424 134.309 210.551 133.689 209.974 132.827Z" fill="#FFB8B8"/>
<path d="M255.563 141.293C255.029 140.986 254.568 140.566 254.214 140.063C253.859 139.559 253.619 138.984 253.511 138.377C253.403 137.771 253.429 137.148 253.588 136.553C253.746 135.958 254.033 135.405 254.429 134.932L249.365 87.276L258.518 87.6941L260.623 134.57C261.372 135.287 261.832 136.254 261.916 137.288C262 138.322 261.702 139.35 261.079 140.179C260.455 141.007 259.549 141.578 258.533 141.784C257.516 141.989 256.46 141.814 255.563 141.293Z" fill="#FFB8B8"/>
<path d="M240.962 73.2179C246.282 73.2179 250.594 68.9051 250.594 63.585C250.594 58.2649 246.282 53.9521 240.962 53.9521C235.641 53.9521 231.329 58.2649 231.329 63.585C231.329 68.9051 235.641 73.2179 240.962 73.2179Z" fill="#FFB8B8"/>
<path d="M255.502 130.454H226.461L226.496 130.228C226.548 129.89 231.671 96.3265 227.893 85.346C227.513 84.2669 227.547 83.0857 227.986 82.0298C228.426 80.9738 229.24 80.1177 230.273 79.6263C235.674 77.0827 246.043 73.9506 254.794 81.5517C256.081 82.6886 257.087 84.1096 257.731 85.7021C258.375 87.2947 258.639 89.0152 258.504 90.7277L255.502 130.454Z" fill="#0374EA"/>
<path d="M232.038 101.287L218.964 98.6341L225.092 84.1109C225.459 82.7042 226.369 81.5005 227.622 80.7636C228.875 80.0268 230.369 79.8171 231.777 80.1804C233.184 80.5438 234.39 81.4506 235.13 82.7019C235.87 83.9532 236.083 85.4469 235.723 86.8553L232.038 101.287Z" fill="#0374EA"/>
<path d="M248.784 106.212L247.998 88.1934C247.402 84.8062 249.341 81.6043 252.323 81.0809C255.306 80.5594 258.218 82.9086 258.817 86.3206L261.771 103.157L248.784 106.212Z" fill="#0374EA"/>
<path d="M254.536 128.297C259.209 146.094 259.718 168.721 258.458 193.403L252.182 192.618L240.809 145.554L234.533 193.403L227.474 193.011C225.365 167.113 223.311 144.881 226.689 130.258L254.536 128.297Z" fill="#000712"/>
<path d="M247.309 71.0296C245.511 72.9438 242.174 71.9162 241.94 69.301C241.922 69.098 241.923 68.8937 241.944 68.6909C242.065 67.5325 242.734 66.4808 242.574 65.2577C242.537 64.9533 242.424 64.6632 242.244 64.4149C240.812 62.4973 237.451 65.2726 236.099 63.5366C235.27 62.4722 236.245 60.7963 235.609 59.6066C234.769 58.0363 232.283 58.8109 230.724 57.951C228.99 56.9942 229.093 54.3328 230.235 52.714C231.628 50.7399 234.069 49.6864 236.48 49.5346C238.891 49.3828 241.286 50.0346 243.537 50.9118C246.095 51.9085 248.631 53.286 250.205 55.5349C252.119 58.2698 252.303 61.9466 251.346 65.1446C250.763 67.0899 248.776 69.4664 247.309 71.0296Z" fill="#000712"/>
<path d="M330.335 203.806H40.774C40.6504 203.805 40.5319 203.756 40.4447 203.668C40.3574 203.581 40.3083 203.462 40.3083 203.339C40.3083 203.215 40.3574 203.096 40.4447 203.009C40.5319 202.921 40.6504 202.872 40.774 202.872H330.335C330.459 202.872 330.577 202.921 330.665 203.009C330.752 203.096 330.801 203.215 330.801 203.339C330.801 203.462 330.752 203.581 330.665 203.668C330.577 203.756 330.459 203.805 330.335 203.806Z" fill="#000712"/>
<path d="M184.835 160.999H133.849C133.177 161.003 132.532 160.74 132.054 160.269C131.576 159.797 131.305 159.155 131.299 158.483V44.6779C131.305 44.0064 131.576 43.3644 132.054 42.8928C132.532 42.4211 133.177 42.1582 133.849 42.1618H184.835C185.506 42.1582 186.152 42.4211 186.63 42.8928C187.108 43.3644 187.379 44.0064 187.384 44.6779V158.483C187.379 159.155 187.108 159.797 186.63 160.269C186.152 160.74 185.506 161.003 184.835 160.999Z" fill="white"/>
<path d="M187.384 78.9857H131.299V79.7701H187.384V78.9857Z" fill="#CCCCCC"/>
<path d="M187.58 123.74H131.495V124.525H187.58V123.74Z" fill="#CCCCCC"/>
<path d="M149.733 42.1618H148.948V161.392H149.733V42.1618Z" fill="#CCCCCC"/>
<path d="M169.343 42.1618H168.558V161.392H169.343V42.1618Z" fill="#CCCCCC"/>
</g>
<defs>
<clipPath id="clip0_13_581">
<rect width="341.217" height="204" fill="white" transform="translate(0.891724)"/>
</clipPath>
</defs>
</svg>
