<svg width="179" height="172" viewBox="0 0 179 172" fill="none" xmlns="http://www.w3.org/2000/svg">
<path d="M157.853 86.4212C157.855 96.0897 155.953 105.664 152.256 114.597C148.559 123.53 143.138 131.647 136.305 138.483C129.472 145.32 121.359 150.743 112.43 154.442C103.501 158.141 93.9318 160.044 84.2679 160.042C43.6282 160.042 10.6824 127.08 10.6824 86.4212C10.6754 78.5123 11.9426 70.6541 14.4353 63.1487C19.3292 48.4909 28.7048 35.7431 41.2364 26.7079C53.7679 17.6728 68.8213 12.8076 84.2679 12.8002C97.5895 12.7956 110.662 16.4104 122.091 23.2587C133.52 30.107 142.875 39.9318 149.158 51.6843C150.716 54.5839 152.075 57.5861 153.226 60.6702C153.385 61.0996 153.54 61.529 153.692 61.9626V61.9667C154.366 63.8726 154.96 65.814 155.474 67.7909C157.059 73.8739 157.858 80.1349 157.853 86.4212Z" fill="#030C16"/>
<path d="M76.217 36.75C72.9101 34.9608 69.2385 33.9509 65.4821 33.7971C61.7258 33.6434 57.984 34.3499 54.5421 35.8628C51.5115 37.1823 48.3205 39.5494 47.3095 43.8239C51.3983 41.4097 56.6912 45.2242 57.7434 51.3434L57.4978 51.4111C56.9421 55.6496 58.1826 60.2641 60.5844 62.8922C60.8997 60.1624 62.6938 58.3044 64.4585 57.1438C66.2231 55.9832 68.1753 55.1402 69.5222 53.1453C71.119 50.7803 71.5244 47.3238 72.1588 44.1707C72.7931 41.0176 73.9966 37.6286 76.217 36.75Z" fill="white"/>
<path d="M53.3292 72.8176C52.1968 74.519 50.6843 75.5866 49.327 76.9159C47.9739 78.2492 46.6861 80.0488 46.4163 82.3597C46.2446 83.8403 46.5103 85.3454 46.4735 86.8424C46.4368 88.3394 45.938 90.0245 44.9201 90.3967C43.3134 90.9774 42.087 87.9917 40.4355 87.7831C39.1232 87.6195 37.9418 89.685 38.3219 91.4765C38.7021 93.2679 40.4886 94.0613 41.5147 92.8916C42.4427 94.4499 41.7886 97.2762 40.3946 97.7547C40.2474 98.7363 40.1003 99.7138 39.9571 100.695C36.4332 98.2291 32.8725 95.7219 29.876 92.1104C26.5433 88.1278 24.4762 83.2397 23.9401 78.0734C23.5517 73.9219 24.1281 69.1734 22.2231 65.9791C20.6982 63.4228 18.0818 62.8583 15.7271 63.0179C15.2979 63.0465 14.8645 63.0956 14.4353 63.1488C15.824 58.9759 17.5877 54.9375 19.7048 51.0831C20.1839 50.8773 20.6291 50.6002 21.0252 50.261C23.2165 48.4 24.1894 44.6331 25.9677 42.0277C26.0822 41.86 26.2008 41.6964 26.3234 41.5369C28.1426 39.1606 30.5791 37.9376 32.9339 36.8006C38.1462 34.2689 43.5097 31.7044 49.0123 32.0561L47.4465 32.2075C45.6192 37.3282 43.7905 42.449 41.9603 47.5697C41.6823 48.355 41.4016 49.1417 41.1182 49.9297C40.0798 52.8418 39.0087 55.9421 39.1682 59.2018C39.2622 61.1323 39.9326 63.1937 41.2081 63.8563C42.3977 64.4698 43.6977 63.7173 44.8465 62.9729C45.333 62.662 45.8154 62.3511 46.3019 62.0362C48.0475 60.9114 49.9811 59.7581 51.8249 60.5106C53.5132 61.1978 54.7601 63.4923 54.9972 65.9668C55.2146 68.3722 54.628 70.7817 53.3292 72.8176Z" fill="white"/>
<path d="M63.7113 107.778C58.613 104.638 53.5148 101.497 48.4165 98.3566L48.5031 98.1336C45.3332 99.3415 44.0172 104.979 44.5411 109.589C45.0649 114.199 46.8412 118.32 47.7386 122.812C48.9486 128.959 48.4919 135.318 46.4159 141.229C53.1198 133.703 59.0527 125.524 64.1256 116.814C64.8342 115.716 65.3742 114.519 65.7275 113.26C66.0514 111.922 66.0016 110.313 65.353 109.239C64.9356 108.623 64.3714 108.121 63.7113 107.778Z" fill="white"/>
<path d="M43.5903 50.6421C43.0489 51.8599 42.8406 53.4837 43.3319 54.7438C43.8336 56.0306 44.8943 56.6122 45.8708 57.0964L48.6878 58.4934C49.625 58.9581 50.6351 59.4276 51.5905 59.0452C52.7428 58.584 53.5417 56.7766 53.3351 55.0987C53.1151 53.3132 51.9902 52.0851 50.9498 51.0392C49.4939 49.5755 48.0379 48.1119 46.582 46.6483L45.7615 47.6538C44.874 48.5198 44.1398 49.5303 43.5903 50.6421Z" fill="white"/>
<path d="M142.752 69.7296C144.019 70.0282 145.287 70.3268 146.554 70.6253C146.333 74.9076 144.211 78.8709 141.366 80.3065C140.181 80.9037 138.86 81.1245 137.879 82.2411C136.992 83.2554 136.542 84.8341 136.129 86.3434C135.406 88.9774 134.682 91.6114 133.958 94.2454C133.182 97.0839 132.184 100.237 130.165 101.26C128.431 102.139 126.449 101.063 125.116 99.2598C123.783 97.4561 122.97 95.0307 122.181 92.6667C122.23 95.2434 121.032 97.771 119.335 98.6667C117.635 99.5624 115.566 98.7526 114.43 96.7526C113.612 95.317 113.273 93.4233 112.472 91.9672C111.67 90.5112 109.99 89.6768 109.115 91.0429C108.539 91.9509 108.612 93.3415 108.326 94.4949C107.881 96.2863 106.532 97.4111 105.195 97.5093C103.862 97.6074 102.562 96.8385 101.446 95.7955C99.1444 93.6359 97.4478 90.2085 96.7897 86.4007C96.4994 84.7033 96.4177 82.8546 96.9205 81.2635C97.4233 79.6726 98.6375 78.4455 99.8435 78.7482C100.637 77.0712 99.0708 74.8463 97.6604 75.0426C96.2459 75.2389 95.1381 76.7563 93.9771 77.922C92.8202 79.0877 91.2013 79.9343 90.0362 78.7768C90.0444 79.8525 89.1695 80.5642 88.4132 80.4742C87.661 80.3883 86.9906 79.783 86.2997 79.3535C83.6302 77.6888 80.2411 78.7932 78.3443 81.9425C79.5298 76.8954 81.2672 71.1039 84.9097 69.9177C86.3978 69.431 88.0208 69.8318 89.427 68.9893C91.9167 67.4964 92.4195 61.8562 90.2692 59.529C90.5431 61.7294 90.49 64.298 89.3289 65.8031C88.1679 67.3083 85.7314 66.3266 85.8786 64.1017C85.5434 65.6354 83.8754 65.8686 83.1069 64.6906C82.3342 63.5127 82.3996 61.5863 82.9474 60.1793C83.4952 58.7723 84.4273 57.7621 85.3308 56.7927C87.2726 54.7109 89.2431 52.6045 91.4915 51.2957C93.7441 49.9869 96.3441 49.5452 98.6007 50.8458C99.7904 51.5329 100.837 52.6782 102.051 53.2835C103.265 53.8929 104.806 53.8152 105.612 52.3918C106.515 50.8049 106.09 48.449 106.425 46.4653C107.026 42.9602 110.53 41.3201 112.472 43.635C111.02 43.2628 109.52 44.9807 109.34 47.0625C109.156 49.1443 110.207 51.2466 111.613 51.8765C113.976 52.9236 116.29 50.2895 118.076 47.8519C119.94 45.2997 121.807 42.7489 123.677 40.1994C123.976 39.7653 124.311 39.3576 124.679 38.9806C125.264 38.4096 126.045 38.0826 126.862 38.0659C127.68 38.0492 128.473 38.344 129.081 38.8906C130.97 40.4325 131.857 43.5942 133.407 45.7701C135.655 48.9317 139.02 49.7006 142.151 50.3141C144.485 50.7681 146.821 51.2248 149.158 51.6843C150.716 54.5839 152.075 57.5861 153.226 60.6701C149.268 62.3511 145.618 65.4964 142.752 69.7296Z" fill="white"/>
<path d="M150.299 118.941C148.547 122.499 146.51 125.909 144.207 129.138C142.736 128.508 141.154 129.633 139.776 130.688C138.337 131.792 136.608 132.868 135.132 131.862C133.623 130.831 133.137 127.948 133.615 125.661C134.093 123.379 135.287 121.563 136.444 119.837C137.67 118.005 138.983 116.103 140.687 115.391C142.396 114.679 144.592 115.685 145.09 118.115L146.3 118.074C145.622 117.142 145.977 115.211 146.889 114.872C147.94 114.475 148.851 115.919 149.473 117.195C149.751 117.771 150.033 118.352 150.299 118.941Z" fill="white"/>
<path d="M103.954 101.665C101.353 101.829 99.2925 98.6253 97.9235 95.4738C96.5544 92.3223 95.3052 88.7183 92.9584 87.1142C91.6174 86.1976 90.0886 86.0718 88.634 85.6277C87.1795 85.1836 85.6571 84.2645 84.9618 82.3929L83.3119 81.726C81.1329 82.9518 78.9252 84.2 77.0476 86.1948C74.9418 88.4328 73.6302 91.3016 73.315 94.359C72.9998 97.6631 74.1636 101.347 76.3383 102.589C78.0566 103.569 80.0572 102.951 81.7978 103.849C83.9724 104.971 85.2635 108.229 85.7522 111.447C86.2409 114.664 86.1171 118.008 86.4667 121.262C86.8164 124.516 87.7801 127.902 89.7744 129.569C92.27 131.656 95.932 129.922 97.0517 126.123C97.6009 124.26 97.582 122.158 97.9928 120.224C98.7161 116.817 100.668 114.29 102.216 111.496C103.765 108.702 104.983 104.908 103.954 101.665Z" fill="white"/>
<path d="M78.2522 68.1956C78.4948 68.419 78.7211 68.6594 78.9296 68.915C79.1453 69.2871 79.2554 69.711 79.2481 70.1411C79.2407 70.5712 79.1162 70.9911 78.888 71.3556C79.2013 71.3378 79.5075 71.2551 79.7872 71.1128C80.067 70.9706 80.3142 70.7719 80.5133 70.5292C80.988 69.9883 81.4056 69.3997 81.7594 68.773C82.0247 68.3402 82.3068 67.755 82.1268 67.241C82.0039 66.8902 81.7134 66.7405 81.5097 66.4767C81.1868 66.0585 81.1068 65.3942 80.9397 64.8202C80.5788 63.5805 79.7142 62.6689 78.7757 62.5386L78.9061 62.5635C78.514 62.6979 78.2403 63.3208 78.3269 63.8812C78.4059 64.3916 78.7337 64.8153 78.7011 65.3359C78.6542 66.0844 77.9065 66.4357 77.8603 67.1843C77.853 67.5598 77.9938 67.9231 78.2522 68.1956Z" fill="white"/>
<path d="M73.7959 55.4754C73.7998 55.4744 73.8037 55.4742 73.8075 55.4732C73.8875 55.4002 73.9617 55.3212 74.0294 55.2367L73.7959 55.4754Z" fill="#E6E6E6"/>
<path d="M74.576 58.989C75.1511 58.619 75.4722 57.5958 75.2821 56.7393C75.0931 55.8882 74.4244 55.316 73.8075 55.4732C73.6286 55.6547 73.4064 55.7877 73.162 55.8597C72.9176 55.9317 72.6588 55.9403 72.4101 55.8848C72.0288 55.7865 71.6101 55.5336 71.2794 55.821C71.0902 56.0357 70.9577 56.2944 70.8942 56.5735C70.7718 56.9495 70.6494 57.3254 70.5269 57.7014C70.4688 57.836 70.4536 57.9853 70.4835 58.1288C70.507 58.1863 70.5448 58.2369 70.5934 58.2755C70.642 58.3142 70.6998 58.3397 70.7611 58.3496C71.4956 58.5662 72.2301 58.7829 72.9646 58.9995C73.4999 59.1574 74.0779 59.3095 74.576 58.989Z" fill="white"/>
<path d="M130.027 107.497C129.688 106.94 129.348 106.384 129.009 105.828C128.675 105.184 128.219 104.611 127.666 104.142C127.545 104.04 127.404 103.964 127.253 103.917C127.101 103.87 126.942 103.854 126.784 103.87C126.626 103.886 126.473 103.933 126.334 104.009C126.195 104.085 126.072 104.188 125.973 104.312L126.015 104.629C126.789 105.601 127.607 106.68 127.804 108.122C127.881 108.69 127.854 109.278 127.922 109.849C127.99 110.42 128.183 111.012 128.551 111.258C129.086 111.615 129.714 111.089 130.094 110.446C130.434 109.918 130.587 109.29 130.527 108.665C130.442 108.245 130.272 107.848 130.027 107.497Z" fill="white"/>
<path d="M145.139 86.2561C145.237 85.6119 145.335 84.9676 145.433 84.3233C145.593 83.6157 145.612 82.8838 145.492 82.1685C145.464 82.0123 145.406 81.8631 145.32 81.7298C145.234 81.5965 145.122 81.4816 144.991 81.3921C144.861 81.3026 144.713 81.2401 144.558 81.2084C144.402 81.1767 144.242 81.1764 144.087 81.2075L143.914 81.4772C143.881 82.719 143.813 84.0721 143.035 85.3016C142.728 85.7864 142.329 86.2191 142.014 86.6995C141.698 87.18 141.465 87.7572 141.588 88.1828C141.767 88.8006 142.586 88.802 143.291 88.5553C143.891 88.3704 144.412 87.9889 144.769 87.4721C144.974 87.0964 145.1 86.6825 145.139 86.2561Z" fill="#E6E6E6"/>
<path d="M135.354 108.22C135.52 107.743 135.28 107.195 135.229 106.668C135.205 105.986 135.386 105.313 135.748 104.735C136.108 104.19 136.38 103.592 136.556 102.963C136.63 102.677 136.616 102.374 136.517 102.095C136.405 101.843 136.132 101.728 135.976 101.928L136.31 102.143C135.859 102.062 135.396 102.085 134.954 102.209C134.703 102.305 134.478 102.461 134.299 102.662C134.12 102.864 133.992 103.106 133.927 103.368C133.871 103.776 133.781 104.178 133.657 104.57C133.458 104.98 133.072 105.117 132.829 105.476C132.664 105.795 132.581 106.15 132.587 106.51C132.593 106.869 132.688 107.221 132.864 107.534C133.168 108.047 133.652 108.428 134.222 108.603C134.63 108.749 135.167 108.757 135.354 108.22Z" fill="white"/>
<path d="M144.839 111.084C144.987 111.468 145.184 111.831 145.427 112.163C145.881 112.62 146.498 112.339 147.049 112.228C147.549 112.149 148.061 112.207 148.531 112.395C149 112.584 149.41 112.896 149.717 113.299C149.503 112.233 149.037 111.234 148.357 110.385C147.678 109.537 146.805 108.864 145.811 108.423C144.512 107.894 143.145 107.842 141.794 107.795L141.561 107.855C142.155 109.586 144.022 109.547 144.839 111.084Z" fill="white"/>
<path d="M104.665 114.624L104.669 114.632C104.691 114.588 104.714 114.545 104.737 114.501L104.665 114.624Z" fill="#E6E6E6"/>
<path d="M103.226 117.411C102.912 117.981 102.643 118.574 102.419 119.185C102.123 120.175 101.927 121.192 101.834 122.221C101.761 122.806 101.738 123.553 102.105 123.839C102.21 123.908 102.337 123.938 102.462 123.921C102.587 123.904 102.702 123.842 102.785 123.746C102.988 123.531 103.155 123.283 103.277 123.013C103.998 121.772 104.557 120.445 104.941 119.063C105.292 117.607 105.289 115.893 104.669 114.632C104.188 115.558 103.707 116.485 103.226 117.411Z" fill="white"/>
<path d="M89.3446 43.1701C89.5732 43.3937 89.8621 43.5454 90.1758 43.6067C90.4895 43.6679 90.8143 43.636 91.1101 43.5149C91.7227 43.2469 92.2846 42.8756 92.7714 42.417C93.1744 42.1187 93.5163 41.7455 93.7784 41.3179C93.9228 41.0624 94.0153 40.7808 94.0507 40.4894C94.086 40.198 94.0635 39.9025 93.9844 39.6198C93.7569 38.9541 93.1796 38.731 92.6704 38.5799C91.8551 38.338 91.0398 38.0961 90.2245 37.8543L90.8142 37.3224C90.2075 36.9966 89.5362 37.6013 89.1569 38.3499C88.9136 38.8388 88.7441 39.3609 88.6538 39.8994C88.4508 41.0744 88.6493 42.4737 89.3446 43.1701Z" fill="#E6E6E6"/>
<path d="M103.739 38.3356C103.968 38.589 104.286 38.7455 104.627 38.7733C104.968 38.801 105.306 38.698 105.574 38.485C105.805 38.3118 105.996 38.0921 106.136 37.84C106.276 37.5879 106.361 37.3092 106.386 37.0219C106.444 36.3803 106.127 35.6672 105.674 35.6118L105.777 35.0111C104.905 34.8535 103.831 34.8219 103.364 35.8818C103.206 36.2878 103.158 36.7282 103.224 37.1588C103.289 37.5894 103.467 37.9952 103.739 38.3356Z" fill="#E6E6E6"/>
<path d="M101.816 6.39026C96.7013 5.81307 91.5671 7.29222 87.5426 10.5023C83.5182 13.7124 80.9332 18.3905 80.3563 23.5074C79.1549 34.163 84.7658 57.3017 94.9957 66.8802C99.8125 48.5286 116.691 37.6435 118.925 27.8601C121.311 17.4062 112.466 7.59221 101.816 6.39026Z" fill="#0374EA"/>
<path d="M98.2785 30.0786C101.774 30.0786 104.608 27.2436 104.608 23.7464C104.608 20.2493 101.774 17.4143 98.2785 17.4143C94.783 17.4143 91.9494 20.2493 91.9494 23.7464C91.9494 27.2436 94.783 30.0786 98.2785 30.0786Z" fill="white"/>
<path d="M91.6237 76.0102C93.9132 76.0102 95.7691 74.1534 95.7691 71.8628C95.7691 69.5723 93.9132 67.7154 91.6237 67.7154C89.3342 67.7154 87.4783 69.5723 87.4783 71.8628C87.4783 74.1534 89.3342 76.0102 91.6237 76.0102Z" fill="#0374EA"/>
<path opacity="0.2" d="M103.515 19.2098C104.228 19.638 104.849 20.2025 105.343 20.871C105.837 21.5394 106.195 22.2988 106.396 23.1056C106.597 23.9124 106.638 24.751 106.515 25.5734C106.392 26.3958 106.108 27.1859 105.68 27.8987C105.252 28.6114 104.688 29.2328 104.02 29.7274C103.352 30.222 102.593 30.5801 101.786 30.7813C100.158 31.1875 98.4344 30.9298 96.9956 30.0648C98.4625 30.3913 99.9978 30.1848 101.326 29.4823C102.655 28.7798 103.691 27.6271 104.247 26.2306C104.804 24.8341 104.846 23.2849 104.366 21.8603C103.885 20.4357 102.914 19.2286 101.625 18.4553C102.291 18.6031 102.93 18.8579 103.515 19.2098Z" fill="#231F20"/>
<path opacity="0.2" d="M118.949 27.8806C116.716 37.6639 99.8373 48.5491 95.0205 66.9006C94.0584 65.9912 93.1649 65.0118 92.3472 63.9704C97.7599 46.7205 113.588 36.2388 115.746 26.7863C117.677 18.3261 112.252 10.2858 104.468 6.88939C113.891 9.2593 121.136 18.3006 118.949 27.8806Z" fill="#231F20"/>
<path d="M42.5057 31.0974C38.6649 30.6639 34.8093 31.7747 31.7871 34.1854C28.7649 36.596 26.8236 40.1091 26.3903 43.9518C25.4882 51.9537 29.7018 69.3301 37.3841 76.5232C41.0013 62.7418 53.6767 54.5675 55.3539 47.2205C57.146 39.37 50.5037 32 42.5057 31.0974Z" fill="#0374EA"/>
<path d="M39.8493 48.8865C42.4743 48.8865 44.6023 46.7575 44.6023 44.1313C44.6023 41.505 42.4743 39.376 39.8493 39.376C37.2243 39.376 35.0964 41.505 35.0964 44.1313C35.0964 46.7575 37.2243 48.8865 39.8493 48.8865Z" fill="white"/>
<path d="M34.8518 83.3796C36.5711 83.3796 37.9649 81.9851 37.9649 80.265C37.9649 78.5449 36.5711 77.1504 34.8518 77.1504C33.1325 77.1504 31.7387 78.5449 31.7387 80.265C31.7387 81.9851 33.1325 83.3796 34.8518 83.3796Z" fill="#0374EA"/>
<path opacity="0.2" d="M43.7819 40.7244C44.3169 41.046 44.7833 41.4699 45.1546 41.9719C45.5258 42.4739 45.7946 43.0441 45.9456 43.65C46.0966 44.2559 46.1268 44.8856 46.0345 45.5032C45.9423 46.1208 45.7293 46.7142 45.4078 47.2494C45.0863 47.7847 44.6626 48.2514 44.1609 48.6228C43.6592 48.9942 43.0892 49.2631 42.4836 49.4142C41.878 49.5652 41.2486 49.5955 40.6313 49.5032C40.014 49.4108 39.4209 49.1978 38.8859 48.8762C39.9875 49.1213 41.1404 48.9663 42.1382 48.4387C43.136 47.9111 43.9136 47.0455 44.3318 45.9968C44.7499 44.948 44.7814 43.7847 44.4206 42.7148C44.0597 41.645 43.3301 40.7386 42.3623 40.1578C42.8629 40.2688 43.3423 40.4601 43.7819 40.7244Z" fill="#231F20"/>
<path d="M160.858 28.2406C159.488 27.6965 158.024 27.4276 156.55 27.4495C155.076 27.4714 153.62 27.7835 152.267 28.3681C150.913 28.9527 149.688 29.7982 148.661 30.8565C147.635 31.9148 146.826 33.1651 146.282 34.536C143.995 40.3013 143.616 54.0694 147.872 60.9699C153.346 51.4577 164.419 47.9454 167.15 42.8236C170.069 37.3507 166.621 30.5292 160.858 28.2406Z" fill="#0374EA"/>
<path d="M156.25 41.0544C158.272 41.0544 159.911 39.4145 159.911 37.3915C159.911 35.3685 158.272 33.7285 156.25 33.7285C154.228 33.7285 152.589 35.3685 152.589 37.3915C152.589 39.4145 154.228 41.0544 156.25 41.0544Z" fill="white"/>
<path d="M145.234 65.6381C146.559 65.6381 147.632 64.564 147.632 63.239C147.632 61.9139 146.559 60.8398 145.234 60.8398C143.91 60.8398 142.836 61.9139 142.836 63.239C142.836 64.564 143.91 65.6381 145.234 65.6381Z" fill="#0374EA"/>
<path d="M152.043 142C149.41 142 146.524 141.81 143.386 141.431C127.151 139.467 106.123 132.64 84.1739 122.206C62.225 111.773 41.9779 98.9794 27.1624 86.1838C19.9454 79.9504 14.4063 74.0501 10.6993 68.6463C6.77458 62.9257 5.05784 57.9392 5.5966 53.8259C6.64635 45.8127 15.9414 44.0596 23.5541 44L23.5567 45.1653C13.1024 45.2471 6.93489 48.4231 6.19023 54.1082C5.24165 61.3489 12.9778 72.653 27.415 85.1224C42.1979 97.8899 62.4078 110.659 84.322 121.076C106.236 131.493 127.226 138.309 143.425 140.268C159.244 142.182 168.861 139.127 169.81 131.886C170.597 125.874 165.406 117.018 155.191 106.949L155.473 105.914C162.894 113.231 171.51 123.725 170.404 132.169C169.865 136.282 167.119 139.147 162.244 140.684C159.465 141.561 156.051 142 152.043 142Z" fill="#0374EA"/>
</svg>
