<svg width="18" height="19" viewBox="0 0 18 19" fill="none" xmlns="http://www.w3.org/2000/svg">
<path fill-rule="evenodd" clip-rule="evenodd" d="M4.12507 0.200196C3.33618 0.200171 2.67831 0.20015 2.15607 0.270364C1.60484 0.344475 1.10716 0.507503 0.707233 0.907428C0.307308 1.30735 0.14428 1.80503 0.0701687 2.35626C-4.48452e-05 2.87851 -2.40276e-05 3.53635 9.36948e-07 4.32525V4.41659C-2.40276e-05 5.20548 -4.48452e-05 5.86335 0.0701687 6.38559C0.14428 6.93683 0.307308 7.4345 0.707233 7.83443C1.10716 8.23435 1.60484 8.39738 2.15607 8.47149C2.67831 8.54171 3.33615 8.54169 4.12505 8.54166H4.21639C5.00529 8.54169 5.66316 8.54171 6.1854 8.47149C6.73663 8.39738 7.23431 8.23435 7.63423 7.83443C8.03416 7.4345 8.19719 6.93683 8.2713 6.38559C8.34151 5.86335 8.34149 5.20551 8.34146 4.41661V4.32527C8.34149 3.53638 8.34151 2.87851 8.2713 2.35626C8.19719 1.80503 8.03416 1.30735 7.63423 0.907428C7.23431 0.507503 6.73663 0.344475 6.1854 0.270364C5.66316 0.20015 5.00531 0.200171 4.21642 0.200196H4.12507ZM1.63854 1.83874C1.75297 1.72431 1.92638 1.63017 2.33157 1.57569C2.7557 1.51867 3.32428 1.51727 4.17073 1.51727C5.01718 1.51727 5.58577 1.51867 6.0099 1.57569C6.41509 1.63017 6.5885 1.72431 6.70292 1.83874C6.81735 1.95316 6.91149 2.12658 6.96597 2.53176C7.02299 2.95589 7.02439 3.52448 7.02439 4.37093C7.02439 5.21738 7.02299 5.78597 6.96597 6.2101C6.91149 6.61528 6.81735 6.78869 6.70292 6.90312C6.5885 7.01754 6.41509 7.11169 6.0099 7.16616C5.58577 7.22319 5.01718 7.22459 4.17073 7.22459C3.32428 7.22459 2.7557 7.22319 2.33157 7.16616C1.92638 7.11169 1.75297 7.01754 1.63854 6.90312C1.52412 6.78869 1.42997 6.61528 1.3755 6.2101C1.31847 5.78597 1.31708 5.21738 1.31708 4.37093C1.31708 3.52448 1.31847 2.95589 1.3755 2.53176C1.42997 2.12658 1.52412 1.95316 1.63854 1.83874Z" fill="#000712"/>
<path fill-rule="evenodd" clip-rule="evenodd" d="M13.7836 9.85873C12.9947 9.8587 12.3368 9.85868 11.8146 9.9289C11.2634 10.003 10.7657 10.166 10.3658 10.566C9.96584 10.9659 9.80281 11.4636 9.7287 12.0148C9.65849 12.537 9.65851 13.1949 9.65854 13.9838V14.0751C9.65851 14.864 9.65849 15.5219 9.7287 16.0441C9.80281 16.5954 9.96584 17.093 10.3658 17.493C10.7657 17.8929 11.2634 18.0559 11.8146 18.13C12.3368 18.2002 12.9947 18.2002 13.7835 18.2002H13.8749C14.6638 18.2002 15.3217 18.2002 15.8439 18.13C16.3952 18.0559 16.8928 17.8929 17.2928 17.493C17.6927 17.093 17.8557 16.5954 17.9298 16.0441C18 15.5219 18 14.8641 18 14.0752V13.9838C18 13.1949 18 12.537 17.9298 12.0148C17.8557 11.4636 17.6927 10.9659 17.2928 10.566C16.8928 10.166 16.3952 10.003 15.8439 9.9289C15.3217 9.85868 14.6638 9.8587 13.8749 9.85873H13.7836ZM11.2971 11.4973C11.4115 11.3828 11.5849 11.2887 11.9901 11.2342C12.4142 11.1772 12.9828 11.1758 13.8293 11.1758C14.6757 11.1758 15.2443 11.1772 15.6684 11.2342C16.0736 11.2887 16.247 11.3828 16.3615 11.4973C16.4759 11.6117 16.57 11.7851 16.6245 12.1903C16.6815 12.6144 16.6829 13.183 16.6829 14.0295C16.6829 14.8759 16.6815 15.4445 16.6245 15.8686C16.57 16.2738 16.4759 16.4472 16.3615 16.5617C16.247 16.6761 16.0736 16.7702 15.6684 16.8247C15.2443 16.8817 14.6757 16.8831 13.8293 16.8831C12.9828 16.8831 12.4142 16.8817 11.9901 16.8247C11.5849 16.7702 11.4115 16.6761 11.2971 16.5617C11.1827 16.4472 11.0885 16.2738 11.034 15.8686C10.977 15.4445 10.9756 14.8759 10.9756 14.0295C10.9756 13.183 10.977 12.6144 11.034 12.1903C11.0885 11.7851 11.1827 11.6117 11.2971 11.4973Z" fill="#000712"/>
<path fill-rule="evenodd" clip-rule="evenodd" d="M4.12507 9.85873H4.21639C5.0053 9.8587 5.66315 9.85868 6.1854 9.9289C6.73663 10.003 7.23431 10.166 7.63423 10.566C8.03416 10.9659 8.19719 11.4636 8.2713 12.0148C8.34151 12.537 8.34149 13.1949 8.34146 13.9838V14.0751C8.34149 14.864 8.34151 15.5219 8.2713 16.0441C8.19719 16.5954 8.03416 17.093 7.63423 17.493C7.23431 17.8929 6.73663 18.0559 6.1854 18.13C5.66316 18.2002 5.00533 18.2002 4.21644 18.2002H4.12508C3.33619 18.2002 2.6783 18.2002 2.15607 18.13C1.60484 18.0559 1.10716 17.8929 0.707233 17.493C0.307308 17.093 0.14428 16.5954 0.0701687 16.0441C-4.48452e-05 15.5219 -2.40276e-05 14.864 9.36948e-07 14.0751V13.9838C-2.40276e-05 13.1949 -4.48452e-05 12.537 0.0701687 12.0148C0.14428 11.4636 0.307308 10.9659 0.707233 10.566C1.10716 10.166 1.60484 10.003 2.15607 9.9289C2.67832 9.85868 3.33617 9.8587 4.12507 9.85873ZM2.33157 11.2342C1.92638 11.2887 1.75297 11.3828 1.63854 11.4973C1.52412 11.6117 1.42997 11.7851 1.3755 12.1903C1.31847 12.6144 1.31708 13.183 1.31708 14.0295C1.31708 14.8759 1.31847 15.4445 1.3755 15.8686C1.42997 16.2738 1.52412 16.4472 1.63854 16.5617C1.75297 16.6761 1.92638 16.7702 2.33157 16.8247C2.7557 16.8817 3.32428 16.8831 4.17073 16.8831C5.01718 16.8831 5.58577 16.8817 6.0099 16.8247C6.41509 16.7702 6.5885 16.6761 6.70292 16.5617C6.81735 16.4472 6.91149 16.2738 6.96597 15.8686C7.02299 15.4445 7.02439 14.8759 7.02439 14.0295C7.02439 13.183 7.02299 12.6144 6.96597 12.1903C6.91149 11.7851 6.81735 11.6117 6.70292 11.4973C6.5885 11.3828 6.41509 11.2887 6.0099 11.2342C5.58577 11.1772 5.01718 11.1758 4.17073 11.1758C3.32428 11.1758 2.7557 11.1772 2.33157 11.2342Z" fill="#000712"/>
<path fill-rule="evenodd" clip-rule="evenodd" d="M13.7836 0.200196C12.9947 0.200171 12.3368 0.20015 11.8146 0.270364C11.2634 0.344475 10.7657 0.507503 10.3658 0.907428C9.96584 1.30735 9.80281 1.80503 9.7287 2.35626C9.65849 2.87851 9.65851 3.53636 9.65854 4.32527V4.41659C9.65851 5.20549 9.65849 5.86335 9.7287 6.38559C9.80281 6.93683 9.96584 7.4345 10.3658 7.83443C10.7657 8.23435 11.2634 8.39738 11.8146 8.47149C12.3368 8.54171 12.9947 8.54169 13.7836 8.54166H13.8749C14.6638 8.54169 15.3217 8.54171 15.8439 8.47149C16.3952 8.39738 16.8928 8.23435 17.2928 7.83443C17.6927 7.4345 17.8557 6.93683 17.9298 6.38559C18 5.86335 18 5.20551 18 4.41661V4.32527C18 3.53638 18 2.87851 17.9298 2.35626C17.8557 1.80503 17.6927 1.30735 17.2928 0.907428C16.8928 0.507503 16.3952 0.344475 15.8439 0.270364C15.3217 0.20015 14.6638 0.200171 13.8749 0.200196H13.7836ZM11.2971 1.83874C11.4115 1.72431 11.5849 1.63017 11.9901 1.57569C12.4142 1.51867 12.9828 1.51727 13.8293 1.51727C14.6757 1.51727 15.2443 1.51867 15.6684 1.57569C16.0736 1.63017 16.247 1.72431 16.3615 1.83874C16.4759 1.95316 16.57 2.12658 16.6245 2.53176C16.6815 2.95589 16.6829 3.52448 16.6829 4.37093C16.6829 5.21738 16.6815 5.78597 16.6245 6.2101C16.57 6.61528 16.4759 6.78869 16.3615 6.90312C16.247 7.01754 16.0736 7.11169 15.6684 7.16616C15.2443 7.22319 14.6757 7.22459 13.8293 7.22459C12.9828 7.22459 12.4142 7.22319 11.9901 7.16616C11.5849 7.11169 11.4115 7.01754 11.2971 6.90312C11.1827 6.78869 11.0885 6.61528 11.034 6.2101C10.977 5.78597 10.9756 5.21738 10.9756 4.37093C10.9756 3.52448 10.977 2.95589 11.034 2.53176C11.0885 2.12658 11.1827 1.95316 11.2971 1.83874Z" fill="#000712"/>
</svg>
