<svg width="21" height="21" viewBox="0 0 21 21" fill="none" xmlns="http://www.w3.org/2000/svg">
<path d="M13 5H16M16 5H19M16 5V8M16 5V2" stroke="currentColor" stroke-width="1.5" stroke-linecap="round"/>
<path d="M1 5C1 3.11438 1 2.17157 1.58579 1.58579C2.17157 1 3.11438 1 5 1C6.88562 1 7.82843 1 8.41421 1.58579C9 2.17157 9 3.11438 9 5C9 6.88562 9 7.82843 8.41421 8.41421C7.82843 9 6.88562 9 5 9C3.11438 9 2.17157 9 1.58579 8.41421C1 7.82843 1 6.88562 1 5Z" stroke="currentColor" stroke-width="1.5"/>
<path d="M12 16C12 14.1144 12 13.1716 12.5858 12.5858C13.1716 12 14.1144 12 16 12C17.8856 12 18.8284 12 19.4142 12.5858C20 13.1716 20 14.1144 20 16C20 17.8856 20 18.8284 19.4142 19.4142C18.8284 20 17.8856 20 16 20C14.1144 20 13.1716 20 12.5858 19.4142C12 18.8284 12 17.8856 12 16Z" stroke="currentColor" stroke-width="1.5"/>
<path d="M1 16C1 14.1144 1 13.1716 1.58579 12.5858C2.17157 12 3.11438 12 5 12C6.88562 12 7.82843 12 8.41421 12.5858C9 13.1716 9 14.1144 9 16C9 17.8856 9 18.8284 8.41421 19.4142C7.82843 20 6.88562 20 5 20C3.11438 20 2.17157 20 1.58579 19.4142C1 18.8284 1 17.8856 1 16Z" stroke="currentColor" stroke-width="1.5"/>
</svg>
