<svg width="18" height="19" viewBox="0 0 18 19" fill="none" xmlns="http://www.w3.org/2000/svg">
<path fill-rule="evenodd" clip-rule="evenodd" d="M7.73424 0.487144C8.53471 0.104546 9.46529 0.104546 10.2658 0.487144C10.6135 0.653358 10.9322 0.925156 11.3734 1.3015C11.3963 1.32104 11.4195 1.34085 11.4431 1.36095C11.6574 1.54355 11.7249 1.5997 11.7931 1.64546C11.9668 1.76187 12.1618 1.84265 12.367 1.88315C12.4476 1.89907 12.535 1.90708 12.8157 1.92948C12.8465 1.93194 12.877 1.93436 12.907 1.93674C13.4851 1.98261 13.9026 2.01574 14.266 2.14411C15.1026 2.43959 15.7606 3.09761 16.0561 3.93416C16.1845 4.29759 16.2176 4.7151 16.2635 5.29321C16.2658 5.32322 16.2683 5.35365 16.2707 5.38454C16.2931 5.66518 16.3011 5.75259 16.317 5.83324C16.3575 6.03835 16.4383 6.23339 16.5547 6.40706C16.6005 6.47534 16.6566 6.54282 16.8392 6.7571C16.8594 6.78069 16.8792 6.80393 16.8987 6.82684C17.275 7.26804 17.5468 7.58669 17.7131 7.93444C18.0956 8.73491 18.0956 9.66548 17.7131 10.466C17.5468 10.8137 17.275 11.1323 16.8987 11.5736C16.8792 11.5965 16.8594 11.6197 16.8392 11.6433C16.6566 11.8576 16.6005 11.925 16.5547 11.9933C16.4383 12.167 16.3575 12.362 16.317 12.5672C16.3011 12.6478 16.2931 12.7352 16.2707 13.0159C16.2683 13.0467 16.2658 13.0772 16.2635 13.1072C16.2176 13.6853 16.1845 14.1028 16.0561 14.4662C15.7606 15.3028 15.1026 15.9608 14.266 16.2563C13.9026 16.3846 13.4851 16.4178 12.907 16.4637C12.877 16.466 12.8465 16.4684 12.8157 16.4709C12.535 16.4933 12.4476 16.5013 12.367 16.5172C12.1618 16.5577 11.9668 16.6385 11.7931 16.7549C11.7249 16.8007 11.6574 16.8568 11.4431 17.0394C11.4195 17.0595 11.3963 17.0794 11.3734 17.0989C10.9322 17.4752 10.6135 17.747 10.2658 17.9132C9.46529 18.2958 8.53471 18.2958 7.73424 17.9132C7.38649 17.747 7.06784 17.4752 6.62661 17.0989C6.60371 17.0794 6.58048 17.0595 6.5569 17.0394C6.34263 16.8568 6.27515 16.8007 6.20687 16.7549C6.0332 16.6385 5.83816 16.5577 5.63304 16.5172C5.5524 16.5013 5.46498 16.4933 5.18435 16.4709C5.15346 16.4684 5.12302 16.466 5.09301 16.4637C4.51491 16.4178 4.0974 16.3846 3.73397 16.2563C2.89741 15.9608 2.2394 15.3028 1.94392 14.4662C1.81555 14.1028 1.78242 13.6853 1.73655 13.1072C1.73416 13.0772 1.73175 13.0467 1.72928 13.0159C1.70689 12.7352 1.69887 12.6478 1.68295 12.5672C1.64246 12.362 1.56167 12.167 1.44527 11.9933C1.3995 11.925 1.34336 11.8576 1.16075 11.6433C1.14066 11.6197 1.12084 11.5965 1.10131 11.5736C0.724961 11.1324 0.453163 10.8137 0.286949 10.466C-0.0956496 9.66548 -0.0956496 8.73491 0.286949 7.93444C0.453162 7.58668 0.724959 7.26803 1.1013 6.82682C1.12084 6.80392 1.14065 6.78068 1.16075 6.7571C1.34336 6.54282 1.3995 6.47534 1.44527 6.40706C1.56167 6.23339 1.64246 6.03835 1.68295 5.83324C1.69887 5.75259 1.70689 5.66518 1.72928 5.38454C1.73175 5.35366 1.73416 5.32322 1.73655 5.29321C1.78242 4.7151 1.81555 4.29759 1.94392 3.93416C2.2394 3.09761 2.89741 2.43959 3.73397 2.14411C4.0974 2.01574 4.51491 1.98261 5.09301 1.93674C5.12302 1.93436 5.15346 1.93194 5.18435 1.92948C5.46498 1.90708 5.5524 1.89907 5.63304 1.88315C5.83816 1.84265 6.0332 1.76187 6.20687 1.64546C6.27515 1.5997 6.34263 1.54355 6.5569 1.36095C6.58049 1.34085 6.60372 1.32103 6.62662 1.3015C7.06784 0.925155 7.38649 0.653358 7.73424 0.487144ZM9.68156 1.7094C9.25054 1.50339 8.74946 1.50339 8.31844 1.7094C8.1518 1.78905 7.97615 1.93136 7.43558 2.39203C7.4267 2.39959 7.41794 2.40706 7.4093 2.41443C7.2319 2.56567 7.1024 2.67607 6.9611 2.77077C6.63857 2.98695 6.27635 3.13698 5.89543 3.21219C5.72855 3.24514 5.55892 3.25864 5.32653 3.27714C5.31521 3.27804 5.30374 3.27895 5.29211 3.27988C4.58413 3.33638 4.3593 3.35995 4.18515 3.42147C3.73469 3.58057 3.38038 3.93489 3.22127 4.38534C3.15976 4.55949 3.13618 4.78433 3.07969 5.49231C3.07876 5.50393 3.07785 5.5154 3.07694 5.52673C3.05844 5.75911 3.04494 5.92874 3.01199 6.09563C2.93679 6.47655 2.78675 6.83877 2.57058 7.1613C2.47587 7.3026 2.36547 7.4321 2.21423 7.6095C2.20686 7.61814 2.1994 7.6269 2.19183 7.63578C1.73116 8.17634 1.58885 8.35199 1.50921 8.51863C1.30319 8.94966 1.30319 9.45074 1.50921 9.88176C1.58885 10.0484 1.73116 10.224 2.19183 10.7646C2.1994 10.7735 2.20687 10.7823 2.21424 10.7909C2.36547 10.9683 2.47587 11.0978 2.57058 11.2391C2.78675 11.5616 2.93679 11.9238 3.01199 12.3048C3.04494 12.4716 3.05844 12.6413 3.07694 12.8737C3.07785 12.885 3.07876 12.8965 3.07969 12.9081C3.13618 13.6161 3.15976 13.8409 3.22127 14.015C3.38038 14.4655 3.73469 14.8198 4.18515 14.9789C4.3593 15.0404 4.58413 15.064 5.29211 15.1205L5.32653 15.1233C5.55892 15.1418 5.72855 15.1553 5.89543 15.1882C6.27635 15.2634 6.63857 15.4134 6.9611 15.6296C7.1024 15.7243 7.2319 15.8347 7.40931 15.986L7.43558 16.0084C7.97615 16.469 8.1518 16.6113 8.31844 16.691C8.74946 16.897 9.25054 16.897 9.68156 16.691C9.8482 16.6113 10.0239 16.469 10.5644 16.0084L10.5907 15.986C10.7681 15.8347 10.8976 15.7243 11.0389 15.6296C11.3614 15.4134 11.7236 15.2634 12.1046 15.1882C12.2715 15.1553 12.4411 15.1418 12.6735 15.1233L12.7079 15.1205C13.4159 15.064 13.6407 15.0404 13.8149 14.9789C14.2653 14.8198 14.6196 14.4655 14.7787 14.0151C14.8402 13.8409 14.8638 13.6161 14.9203 12.9081L14.9231 12.8737C14.9416 12.6413 14.9551 12.4716 14.988 12.3048C15.0632 11.9238 15.2132 11.5616 15.4294 11.2391C15.5241 11.0978 15.6345 10.9683 15.7858 10.7909L15.8082 10.7646C16.2688 10.224 16.4111 10.0484 16.4908 9.88176C16.6968 9.45074 16.6968 8.94966 16.4908 8.51863C16.4111 8.35199 16.2688 8.17634 15.8082 7.63578L15.7857 7.60948C15.6345 7.43208 15.5241 7.30259 15.4294 7.1613C15.2132 6.83877 15.0632 6.47655 14.988 6.09563C14.9551 5.92874 14.9416 5.75911 14.9231 5.52672L14.9203 5.49231C14.8638 4.78433 14.8402 4.55949 14.7787 4.38534C14.6196 3.93489 14.2653 3.58057 13.8149 3.42147C13.6407 3.35995 13.4159 3.33638 12.7079 3.27988C12.6963 3.27895 12.6848 3.27804 12.6735 3.27714C12.4411 3.25864 12.2715 3.24514 12.1046 3.21219C11.7236 3.13698 11.3614 2.98695 11.0389 2.77077C10.8976 2.67607 10.7681 2.56567 10.5907 2.41442C10.5821 2.40706 10.5733 2.39959 10.5644 2.39203C10.0239 1.93136 9.8482 1.78905 9.68156 1.7094Z" fill="#000712"/>
<path fill-rule="evenodd" clip-rule="evenodd" d="M12.1883 6.01185C12.4529 6.27637 12.4529 6.70524 12.1883 6.96976L6.76957 12.3885C6.50505 12.6531 6.07617 12.6531 5.81165 12.3885C5.54713 12.124 5.54713 11.6951 5.81165 11.4306L11.2304 6.01185C11.495 5.74733 11.9238 5.74733 12.1883 6.01185Z" fill="#000712"/>
<path d="M12.161 11.458C12.161 11.9568 11.7566 12.3612 11.2578 12.3612C10.759 12.3612 10.3547 11.9568 10.3547 11.458C10.3547 10.9592 10.759 10.5549 11.2578 10.5549C11.7566 10.5549 12.161 10.9592 12.161 11.458Z" fill="#000712"/>
<path d="M7.64531 6.94237C7.64531 7.44116 7.24096 7.8455 6.74218 7.8455C6.24339 7.8455 5.83905 7.44116 5.83905 6.94237C5.83905 6.44359 6.24339 6.03924 6.74218 6.03924C7.24096 6.03924 7.64531 6.44359 7.64531 6.94237Z" fill="#000712"/>
</svg>
