<svg width="20" height="16" viewBox="0 0 20 16" fill="none" xmlns="http://www.w3.org/2000/svg">
<path d="M16.3 15.1998V9.7998M16.3 9.7998L18.1 11.5998M16.3 9.7998L14.5 11.5998" stroke="currentColor" stroke-width="1.5" stroke-linecap="round" stroke-linejoin="round"/>
<path d="M19 7.9998C19 4.60569 19 2.90864 17.9456 1.85422C16.8912 0.799805 15.1941 0.799805 11.8 0.799805H8.2C4.80589 0.799805 3.10883 0.799805 2.05442 1.85422C1 2.90864 1 4.60569 1 7.9998C1 11.3939 1 13.091 2.05442 14.1454C3.10883 15.1998 4.80589 15.1998 8.2 15.1998H11.8" stroke="currentColor" stroke-width="1.5" stroke-linecap="round"/>
<path d="M8.20001 11.5996H4.60001" stroke="currentColor" stroke-width="1.5" stroke-linecap="round"/>
<path d="M10.9 11.5996H10.45" stroke="currentColor" stroke-width="1.5" stroke-linecap="round"/>
<path d="M1 6.2002L19 6.2002" stroke="currentColor" stroke-width="1.5" stroke-linecap="round"/>
</svg>
