<svg width="22" height="18" viewBox="0 0 22 18" fill="none" xmlns="http://www.w3.org/2000/svg">
<path d="M2.27489 12.2957C1.42496 11.1915 1 10.6394 1 9C1 7.36062 1.42496 6.80853 2.27489 5.70433C3.97196 3.49956 6.81811 1 11 1C15.1819 1 18.028 3.49956 19.7251 5.70433C20.575 6.80853 21 7.36062 21 9C21 10.6394 20.575 11.1915 19.7251 12.2957C18.028 14.5004 15.1819 17 11 17C6.81811 17 3.97196 14.5004 2.27489 12.2957Z" stroke="currentColor"/>
<path d="M14 9C14 10.6569 12.6569 12 11 12C9.34315 12 8 10.6569 8 9C8 7.34315 9.34315 6 11 6C12.6569 6 14 7.34315 14 9Z" stroke="currentColor"/>
</svg>
