<svg width="24" height="19" viewBox="0 0 24 19" fill="none" xmlns="http://www.w3.org/2000/svg">
<path fill-rule="evenodd" clip-rule="evenodd" d="M11.5317 5.68604C9.46067 5.68604 7.78174 7.36497 7.78174 9.43604C7.78174 11.5071 9.46067 13.186 11.5317 13.186C13.6028 13.186 15.2817 11.5071 15.2817 9.43604C15.2817 7.36497 13.6028 5.68604 11.5317 5.68604ZM9.28174 9.43604C9.28174 8.19339 10.2891 7.18604 11.5317 7.18604C12.7744 7.18604 13.7817 8.19339 13.7817 9.43604C13.7817 10.6787 12.7744 11.686 11.5317 11.686C10.2891 11.686 9.28174 10.6787 9.28174 9.43604Z" fill="currentColor"/>
<path fill-rule="evenodd" clip-rule="evenodd" d="M11.5317 0.686035C7.01761 0.686035 3.97703 3.39023 2.21231 5.6829L2.18048 5.72424C1.78138 6.24257 1.4138 6.71996 1.16443 7.28443C0.897383 7.88891 0.781738 8.54772 0.781738 9.43604C0.781738 10.3243 0.897383 10.9832 1.16443 11.5876C1.4138 12.1521 1.78138 12.6295 2.18049 13.1478L2.21231 13.1892C3.97703 15.4818 7.01761 18.186 11.5317 18.186C16.0459 18.186 19.0864 15.4818 20.8512 13.1892L20.883 13.1479C21.2821 12.6295 21.6497 12.1521 21.8991 11.5876C22.1661 10.9832 22.2817 10.3243 22.2817 9.43604C22.2817 8.54772 22.1661 7.88891 21.8991 7.28443C21.6497 6.71995 21.2821 6.24255 20.883 5.72421L20.8512 5.6829C19.0864 3.39023 16.0459 0.686035 11.5317 0.686035ZM3.40096 6.59783C5.03037 4.48095 7.6821 2.18604 11.5317 2.18604C15.3814 2.18604 18.0331 4.48095 19.6625 6.59783C20.1011 7.16762 20.358 7.50809 20.527 7.89058C20.6849 8.24805 20.7817 8.68497 20.7817 9.43604C20.7817 10.1871 20.6849 10.624 20.527 10.9815C20.358 11.364 20.1011 11.7044 19.6625 12.2742C18.0331 14.3911 15.3814 16.686 11.5317 16.686C7.6821 16.686 5.03038 14.3911 3.40096 12.2742C2.96237 11.7044 2.70547 11.364 2.5365 10.9815C2.37858 10.624 2.28174 10.1871 2.28174 9.43604C2.28174 8.68497 2.37858 8.24805 2.5365 7.89058C2.70547 7.50809 2.96237 7.16763 3.40096 6.59783Z" fill="currentColor"/>
<rect x="0.280234" y="16.5471" width="26.8969" height="2.1" rx="1.05" transform="rotate(-37.2129 0.280234 16.5471)" fill="currentColor" stroke="white" stroke-width="0.4"/>
</svg>
