<svg width="19" height="18" viewBox="0 0 19 18" fill="none" xmlns="http://www.w3.org/2000/svg">
<path d="M1 9C1 4.99306 1 2.98959 2.2448 1.7448C3.48959 0.5 5.49306 0.5 9.5 0.5C13.5069 0.5 15.5104 0.5 16.7552 1.7448C18 2.98959 18 4.99306 18 9C18 13.0069 18 15.0104 16.7552 16.2552C15.5104 17.5 13.5069 17.5 9.5 17.5C5.49306 17.5 3.48959 17.5 2.2448 16.2552C1 15.0104 1 13.0069 1 9Z" stroke="#030303"/>
<circle cx="12.9" cy="5.59941" r="1.7" stroke="#030303"/>
<path d="M1 9.42511L2.48885 8.12238C3.26343 7.44463 4.43083 7.48351 5.15861 8.21128L8.80488 11.8576C9.38902 12.4417 10.3086 12.5213 10.9844 12.0463L11.2379 11.8682C12.2105 11.1847 13.5264 11.2639 14.41 12.0591L17.15 14.5251" stroke="#030303" stroke-linecap="round"/>
</svg>
