<svg width="20" height="20" viewBox="0 0 20 20" fill="none" xmlns="http://www.w3.org/2000/svg">
<path d="M3.45564 13.7232C2.06466 12.3322 1.36916 11.6367 1.11037 10.7344C0.851585 9.83203 1.07275 8.87365 1.51508 6.95688L1.77017 5.85151C2.1423 4.23893 2.32837 3.43263 2.8805 2.8805C3.43263 2.32837 4.23892 2.1423 5.85151 1.77017L6.95688 1.51508C8.87365 1.07275 9.83203 0.851585 10.7344 1.11037C11.6367 1.36916 12.3322 2.06466 13.7232 3.45564L15.3699 5.10231C17.79 7.5224 19 8.73244 19 10.2361C19 11.7397 17.79 12.9498 15.3699 15.3699C12.9498 17.79 11.7397 19 10.2361 19C8.73244 19 7.5224 17.79 5.10231 15.3699L3.45564 13.7232Z" stroke="currentColor" stroke-width="1.5"/>
<circle cx="6.94652" cy="7.19141" r="1.8" transform="rotate(-45 6.94652 7.19141)" stroke="currentColor" stroke-width="1.5"/>
<path d="M9.58756 15.8496L15.8687 9.56829" stroke="currentColor" stroke-width="1.5" stroke-linecap="round"/>
</svg>
