<svg width="18" height="20" viewBox="0 0 18 20" fill="none" xmlns="http://www.w3.org/2000/svg">
<path d="M5.44614 5.53619C5.4569 3.60285 5.54263 2.55584 6.22563 1.87284C7.00667 1.0918 8.26373 1.0918 10.7779 1.0918H11.6667C14.1809 1.0918 15.4379 1.0918 16.219 1.87284C17 2.65388 17 3.91094 17 6.42507V13.5361C17 16.0502 17 17.3073 16.219 18.0883C15.4379 18.8694 14.1809 18.8694 11.6667 18.8694H10.7779C8.26373 18.8694 7.00667 18.8694 6.22563 18.0883C5.54263 17.4053 5.4569 16.3583 5.44614 14.425" stroke="currentColor" stroke-width="1.5" stroke-linecap="round"/>
<path d="M5.44439 16.6481C3.34929 16.6481 2.30173 16.6481 1.65087 15.9972C1 15.3464 1 14.2988 1 12.2037V7.75933C1 5.66423 1 4.61667 1.65087 3.96581C2.30173 3.31494 3.34929 3.31494 5.44439 3.31494" stroke="currentColor" stroke-width="1.5"/>
<path d="M11.6665 9.98088L3.66664 9.98088M3.66664 9.98088L5.4444 11.7586M3.66664 9.98088L5.4444 8.20312" stroke="currentColor" stroke-width="1.5" stroke-linecap="round" stroke-linejoin="round"/>
</svg>
