<svg width="20" height="20" viewBox="0 0 20 20" fill="none" xmlns="http://www.w3.org/2000/svg">
<path d="M13.0536 2.94008L12.5519 3.49755L13.0536 2.94008ZM16.6165 6.14669L16.1148 6.70416L16.6165 6.14669ZM18.6886 8.43048L18.0035 8.73561V8.73561L18.6886 8.43048ZM2.05442 18.0374L2.58475 17.507H2.58475L2.05442 18.0374ZM17.9456 18.0374L17.4153 17.507L17.9456 18.0374ZM11.8 18.3418H8.2V19.8418H11.8V18.3418ZM1.75 11.8918V8.2918H0.25V11.8918H1.75ZM18.25 11.4984V11.8918H19.75V11.4984H18.25ZM12.5519 3.49755L16.1148 6.70416L17.1183 5.58922L13.5554 2.38261L12.5519 3.49755ZM19.75 11.4984C19.75 9.98551 19.7651 9.00422 19.3737 8.12535L18.0035 8.73561C18.2349 9.25515 18.25 9.85301 18.25 11.4984H19.75ZM16.1148 6.70416C17.3378 7.80487 17.7721 8.21607 18.0035 8.73561L19.3737 8.12535C18.9823 7.24649 18.2428 6.60129 17.1183 5.58922L16.1148 6.70416ZM8.22681 1.8418C9.65611 1.8418 10.1768 1.85338 10.6396 2.03098L11.177 0.630548C10.3944 0.330218 9.54252 0.341797 8.22681 0.341797V1.8418ZM13.5554 2.38261C12.5822 1.50672 11.9595 0.930837 11.177 0.630548L10.6396 2.03098C11.1025 2.20862 11.495 2.5463 12.5519 3.49755L13.5554 2.38261ZM8.2 18.3418C6.48174 18.3418 5.2685 18.3402 4.34976 18.2167C3.45259 18.0961 2.94938 17.8717 2.58475 17.507L1.52409 18.5677C2.21387 19.2575 3.08639 19.5603 4.14989 19.7033C5.19181 19.8434 6.52415 19.8418 8.2 19.8418V18.3418ZM0.25 11.8918C0.25 13.5677 0.248407 14.9 0.38849 15.9419C0.531473 17.0054 0.834301 17.8779 1.52409 18.5677L2.58475 17.507C2.22011 17.1424 1.99573 16.6392 1.87511 15.742C1.75159 14.8233 1.75 13.6101 1.75 11.8918H0.25ZM11.8 19.8418C13.4759 19.8418 14.8082 19.8434 15.8501 19.7033C16.9136 19.5603 17.7861 19.2575 18.4759 18.5677L17.4153 17.507C17.0506 17.8717 16.5474 18.0961 15.6502 18.2167C14.7315 18.3402 13.5183 18.3418 11.8 18.3418V19.8418ZM18.25 11.8918C18.25 13.6101 18.2484 14.8233 18.1249 15.742C18.0043 16.6392 17.7799 17.1424 17.4153 17.507L18.4759 18.5677C19.1657 17.8779 19.4685 17.0054 19.6115 15.9419C19.7516 14.9 19.75 13.5677 19.75 11.8918H18.25ZM1.75 8.2918C1.75 6.57354 1.75159 5.36029 1.87511 4.44155C1.99573 3.54439 2.22011 3.04117 2.58475 2.67654L1.52409 1.61588C0.834301 2.30567 0.531473 3.17819 0.38849 4.24168C0.248407 5.2836 0.25 6.61594 0.25 8.2918H1.75ZM8.22681 0.341797C6.54195 0.341797 5.20316 0.340218 4.15703 0.480227C3.0899 0.623048 2.21445 0.925513 1.52409 1.61588L2.58475 2.67654C2.94879 2.3125 3.45355 2.08775 4.35601 1.96697C5.27949 1.84338 6.49969 1.8418 8.22681 1.8418V0.341797Z" fill="currentColor"/>
<path d="M4.60001 12.3418H11.8" stroke="currentColor" stroke-width="1.5" stroke-linecap="round"/>
<path d="M4.60001 15.4922H9.55001" stroke="currentColor" stroke-width="1.5" stroke-linecap="round"/>
<path d="M10.9 1.54199V3.79199C10.9 5.91331 10.9 6.97397 11.559 7.63298C12.218 8.29199 13.2787 8.29199 15.4 8.29199H19" stroke="currentColor" stroke-width="1.5"/>
</svg>
