<svg width="18" height="14" viewBox="0 0 18 14" fill="none" xmlns="http://www.w3.org/2000/svg">
<path d="M1 7C1 3.93587 1 2.40381 1.9519 1.4519C2.90381 0.5 4.43587 0.5 7.5 0.5H10.75C13.8141 0.5 15.3462 0.5 16.2981 1.4519C17.25 2.40381 17.25 3.93587 17.25 7C17.25 10.0641 17.25 11.5962 16.2981 12.5481C15.3462 13.5 13.8141 13.5 10.75 13.5H7.5C4.43587 13.5 2.90381 13.5 1.9519 12.5481C1 11.5962 1 10.0641 1 7Z" stroke="currentColor"/>
<path d="M4.25 3.75L6.0041 5.21175C7.49637 6.45531 8.2425 7.07709 9.125 7.07709C10.0075 7.07709 10.7536 6.45531 12.2459 5.21175L14 3.75" stroke="currentColor" stroke-linecap="round"/>
</svg>
