<svg width="16" height="18" viewBox="0 0 16 18" fill="none" xmlns="http://www.w3.org/2000/svg">
<path d="M1 7.73332C1 5.17526 1 3.89622 1.30201 3.46593C1.60403 3.03563 2.80666 2.62397 5.21193 1.80063L5.67018 1.64377C6.92399 1.21459 7.55089 1 8.2 1C8.84911 1 9.47602 1.21459 10.7298 1.64377L11.1881 1.80063C13.5933 2.62397 14.796 3.03563 15.098 3.46593C15.4 3.89622 15.4 5.17526 15.4 7.73332C15.4 8.11972 15.4 8.53873 15.4 8.99309C15.4 13.5035 12.0088 15.6924 9.88115 16.6218C9.30399 16.8739 9.01541 17 8.2 17C7.38459 17 7.09601 16.8739 6.51885 16.6218C4.39117 15.6924 1 13.5035 1 8.99309C1 8.53873 1 8.11972 1 7.73332Z" stroke="currentColor"/>
<path d="M8.20005 10.1999V12.5999M9.39985 9.87802C8.25214 10.5406 6.78457 10.1474 6.12193 8.9997C5.4593 7.85199 5.85254 6.38442 7.00025 5.72179C7.46808 5.45169 7.98905 5.35702 8.48699 5.41738C9.21063 5.50509 9.88563 5.92022 10.2782 6.6001C10.6707 7.27999 10.6927 8.07211 10.4068 8.74267C10.2101 9.20407 9.86768 9.60792 9.39985 9.87802Z" stroke="currentColor" stroke-linecap="round"/>
</svg>
