<svg width="18" height="18" viewBox="0 0 18 18" fill="none" xmlns="http://www.w3.org/2000/svg">
<path d="M1 12.1999C1 9.93716 1 8.80579 1.70294 8.10285C2.40589 7.3999 3.53726 7.3999 5.8 7.3999H12.2C14.4627 7.3999 15.5941 7.3999 16.2971 8.10285C17 8.80579 17 9.93716 17 12.1999C17 14.4626 17 15.594 16.2971 16.297C15.5941 16.9999 14.4627 16.9999 12.2 16.9999H5.8C3.53726 16.9999 2.40589 16.9999 1.70294 16.297C1 15.594 1 14.4626 1 12.1999Z" stroke="currentColor"/>
<path d="M4.20001 7.4V5.8C4.20001 3.14903 6.34905 1 9.00001 1C11.651 1 13.8 3.14903 13.8 5.8V7.4" stroke="currentColor" stroke-linecap="round"/>
<path d="M5.79999 12.2H5.80719M8.99279 12.2H8.99999M12.1928 12.2H12.2" stroke="currentColor" stroke-width="1.5" stroke-linecap="round" stroke-linejoin="round"/>
</svg>
