<svg width="20" height="20" viewBox="0 0 20 20" fill="none" xmlns="http://www.w3.org/2000/svg">
<path d="M13.2199 2.24377L15.0199 3.18837C16.9564 4.2046 17.9247 4.71271 18.4623 5.62577C19 6.53882 19 7.675 19 9.94736V10.0526C19 12.325 19 13.4612 18.4623 14.3742C17.9247 15.2873 16.9564 15.7954 15.0199 16.8116L13.2199 17.7562C11.6399 18.5854 10.8498 19 10 19C9.15015 19 8.36012 18.5854 6.78006 17.7562L4.98006 16.8116C3.04356 15.7954 2.07531 15.2873 1.53766 14.3742C1 13.4612 1 12.325 1 10.0526V9.94736C1 7.675 1 6.53882 1.53766 5.62577C2.07531 4.71271 3.04356 4.2046 4.98006 3.18837L6.78006 2.24377C8.36012 1.41459 9.15015 1 10 1C10.8498 1 11.6399 1.41459 13.2199 2.24377Z" stroke="#000712" stroke-width="1.5" stroke-linecap="round"/>
<path d="M18.1 5.9502L10 10.0002M10 10.0002L1.90002 5.9502M10 10.0002V18.5502" stroke="#000712" stroke-width="1.5" stroke-linecap="round"/>
</svg>
