<svg width="20" height="22" viewBox="0 0 20 22" fill="none" xmlns="http://www.w3.org/2000/svg">
<path d="M1 9.41666C1 6.21907 1 4.62028 1.37752 4.08241C1.75503 3.54454 3.25832 3.02996 6.26491 2.00079L6.83772 1.80472C8.40498 1.26824 9.18861 1 10 1C10.8114 1 11.595 1.26824 13.1623 1.80472L13.7351 2.00079C16.7417 3.02996 18.245 3.54454 18.6225 4.08241C19 4.62028 19 6.21907 19 9.41666C19 9.89965 19 10.4234 19 10.9914C19 16.6294 14.761 19.3655 12.1014 20.5273C11.38 20.8424 11.0193 21 10 21C8.98074 21 8.62001 20.8424 7.89856 20.5273C5.23896 19.3655 1 16.6294 1 10.9914C1 10.4234 1 9.89965 1 9.41666Z" stroke="currentColor" stroke-width="1.5"/>
<path d="M10 12.5V15.5M11.4997 12.0976C10.0651 12.9259 8.23065 12.4344 7.40236 10.9997C6.57407 9.56511 7.06561 7.73065 8.50025 6.90236C9.08503 6.56473 9.73625 6.4464 10.3587 6.52185C11.2632 6.63149 12.107 7.1504 12.5976 8.00025C13.0883 8.8501 13.1158 9.84026 12.7585 10.6785C12.5126 11.2552 12.0845 11.76 11.4997 12.0976Z" stroke="currentColor" stroke-width="1.5" stroke-linecap="round"/>
</svg>
