<svg width="20" height="19" viewBox="0 0 20 19" fill="none" xmlns="http://www.w3.org/2000/svg">
<path d="M1 10C1 9.05719 1 8.58579 1.29289 8.29289C1.58579 8 2.05719 8 3 8C3.94281 8 4.41421 8 4.70711 8.29289C5 8.58579 5 9.05719 5 10V16C5 16.9428 5 17.4142 4.70711 17.7071C4.41421 18 3.94281 18 3 18C2.05719 18 1.58579 18 1.29289 17.7071C1 17.4142 1 16.9428 1 16V10Z" stroke="currentColor" stroke-width="1.5"/>
<path d="M8 6C8 5.05719 8 4.58579 8.29289 4.29289C8.58579 4 9.05719 4 10 4C10.9428 4 11.4142 4 11.7071 4.29289C12 4.58579 12 5.05719 12 6V16C12 16.9428 12 17.4142 11.7071 17.7071C11.4142 18 10.9428 18 10 18C9.05719 18 8.58579 18 8.29289 17.7071C8 17.4142 8 16.9428 8 16V6Z" stroke="currentColor" stroke-width="1.5"/>
<path d="M15 3C15 2.05719 15 1.58579 15.2929 1.29289C15.5858 1 16.0572 1 17 1C17.9428 1 18.4142 1 18.7071 1.29289C19 1.58579 19 2.05719 19 3V16C19 16.9428 19 17.4142 18.7071 17.7071C18.4142 18 17.9428 18 17 18C16.0572 18 15.5858 18 15.2929 17.7071C15 17.4142 15 16.9428 15 16V3Z" stroke="currentColor" stroke-width="1.5"/>
</svg>
