<svg width="16" height="16" viewBox="0 0 16 16" fill="none" xmlns="http://www.w3.org/2000/svg">
<path fill-rule="evenodd" clip-rule="evenodd" d="M7.38953 1.3314C3.90565 1.3314 1.0814 4.15565 1.0814 7.63953C1.0814 11.1234 3.90565 13.9477 7.38953 13.9477C10.8734 13.9477 13.6977 11.1234 13.6977 7.63953C13.6977 4.15565 10.8734 1.3314 7.38953 1.3314ZM0 7.63953C0 3.55841 3.30841 0.25 7.38953 0.25C11.4707 0.25 14.7791 3.55841 14.7791 7.63953C14.7791 9.48549 14.1022 11.1733 12.9831 12.4685L15.3416 14.827C15.5528 15.0381 15.5528 15.3805 15.3416 15.5916C15.1305 15.8028 14.7881 15.8028 14.577 15.5916L12.2185 13.2331C10.9233 14.3522 9.23549 15.0291 7.38953 15.0291C3.30841 15.0291 0 11.7207 0 7.63953Z" fill="currentColor"/>
</svg>
