<svg width="20" height="22" viewBox="0 0 20 22" fill="none" xmlns="http://www.w3.org/2000/svg">
<path d="M14.0011 3.00049C16.1763 3.0126 17.3544 3.10906 18.1228 3.87751C19.0016 4.75626 19.0016 6.1706 19.0016 8.99927V14.9998C19.0016 17.8285 19.0016 19.2428 18.1228 20.1216C17.2441 21.0003 15.8297 21.0003 13.001 21.0003H7.00052C4.17185 21.0003 2.75751 21.0003 1.87876 20.1216C1 19.2428 1 17.8285 1 14.9998V8.99927C1 6.1706 1 4.75626 1.87876 3.87751C2.64721 3.10906 3.82522 3.0126 6.00043 3.00049" stroke="#000712" stroke-width="1.5"/>
<path d="M7.00052 12.4012L8.71495 14.0013L13.001 10.001" stroke="#000712" stroke-width="1.5" stroke-linecap="round" stroke-linejoin="round"/>
<path d="M6.00046 2.50013C6.00046 1.67163 6.67209 1 7.50059 1H12.501C13.3295 1 14.0012 1.67163 14.0012 2.50013V3.50022C14.0012 4.32872 13.3295 5.00035 12.501 5.00035H7.50059C6.67209 5.00035 6.00046 4.32872 6.00046 3.50022V2.50013Z" stroke="#000712" stroke-width="1.5"/>
</svg>
