<svg width="20" height="21" viewBox="0 0 20 21" fill="none" xmlns="http://www.w3.org/2000/svg">
<circle cx="10" cy="10.5459" r="2.86375" stroke="currentColor" stroke-width="1.5"/>
<path d="M11.6852 1.14533C11.3343 1 10.8896 1 10 1C9.11044 1 8.66566 1 8.31481 1.14533C7.84701 1.3391 7.47535 1.71076 7.28158 2.17856C7.19313 2.39211 7.15851 2.64045 7.14496 3.0027C7.12506 3.53506 6.85204 4.02783 6.39068 4.2942C5.92933 4.56056 5.36608 4.55061 4.89509 4.30167C4.57459 4.13227 4.34221 4.03807 4.11304 4.0079C3.61103 3.94181 3.10333 4.07785 2.70162 4.38609C2.40034 4.61727 2.17795 5.00246 1.73317 5.77284C1.28839 6.54323 1.066 6.92842 1.01643 7.30492C0.950343 7.80693 1.08638 8.31464 1.39462 8.71634C1.53532 8.8997 1.73305 9.05383 2.03993 9.24666C2.49108 9.53013 2.78136 10.013 2.78133 10.5458C2.7813 11.0786 2.49103 11.5614 2.03993 11.8449C1.73299 12.0377 1.53524 12.1919 1.39453 12.3752C1.08629 12.7769 0.95025 13.2846 1.01634 13.7867C1.06591 14.1632 1.2883 14.5483 1.73308 15.3187C2.17786 16.0891 2.40025 16.4743 2.70153 16.7055C3.10324 17.0137 3.61094 17.1498 4.11295 17.0837C4.3421 17.0535 4.57447 16.9593 4.89494 16.7899C5.36596 16.541 5.92925 16.531 6.39064 16.7974C6.85203 17.0638 7.12505 17.5566 7.14497 18.089C7.15851 18.4512 7.19313 18.6995 7.28158 18.9131C7.47535 19.3809 7.84701 19.7525 8.31481 19.9463C8.66566 20.0916 9.11044 20.0916 10 20.0916C10.8896 20.0916 11.3343 20.0916 11.6852 19.9463C12.153 19.7525 12.5247 19.3809 12.7184 18.9131C12.8069 18.6995 12.8415 18.4512 12.855 18.0889C12.8749 17.5566 13.1479 17.0638 13.6093 16.7974C14.0706 16.531 14.634 16.5409 15.105 16.7899C15.4254 16.9593 15.6578 17.0534 15.887 17.0836C16.389 17.1497 16.8967 17.0137 17.2984 16.7054C17.5997 16.4742 17.822 16.089 18.2668 15.3187C18.7116 14.5483 18.934 14.1631 18.9836 13.7866C19.0497 13.2846 18.9136 12.7769 18.6054 12.3752C18.4647 12.1918 18.2669 12.0377 17.96 11.8448C17.5089 11.5614 17.2186 11.0785 17.2187 10.5457C17.2187 10.013 17.5089 9.53022 17.96 9.24681C18.267 9.05395 18.4648 8.89979 18.6055 8.71641C18.9137 8.3147 19.0497 7.807 18.9837 7.30499C18.9341 6.92848 18.7117 6.54329 18.2669 5.77291C17.8221 5.00253 17.5998 4.61734 17.2985 4.38616C16.8968 4.07792 16.3891 3.94188 15.8871 4.00797C15.6579 4.03814 15.4255 4.13232 15.1051 4.3017C14.634 4.55066 14.0707 4.56061 13.6094 4.29423C13.148 4.02784 12.8749 3.53505 12.855 3.00265C12.8415 2.64043 12.8069 2.3921 12.7184 2.17856C12.5247 1.71076 12.153 1.3391 11.6852 1.14533Z" stroke="currentColor" stroke-width="1.5"/>
</svg>
