<svg width="19" height="18" viewBox="0 0 19 18" fill="none" xmlns="http://www.w3.org/2000/svg">
<path d="M11.9979 2.11939L13.6179 2.96953C15.3608 3.88414 16.2322 4.34144 16.7161 5.16319C17.2 5.98494 17.2 7.0075 17.2 9.05262V9.14738C17.2 11.1925 17.2 12.2151 16.7161 13.0368C16.2322 13.8586 15.3608 14.3159 13.6179 15.2305L11.9979 16.0806C10.5759 16.8269 9.86486 17.2 9.1 17.2C8.33514 17.2 7.62411 16.8269 6.20206 16.0806L4.58206 15.2305C2.83921 14.3159 1.96778 13.8586 1.48389 13.0368C1 12.2151 1 11.1925 1 9.14738V9.05262C1 7.0075 1 5.98494 1.48389 5.16319C1.96778 4.34144 2.83921 3.88414 4.58206 2.96953L6.20206 2.11939C7.62411 1.37313 8.33514 1 9.1 1C9.86486 1 10.5759 1.37313 11.9979 2.11939Z" stroke="#000712" stroke-width="1.5" stroke-linecap="round"/>
<path d="M16.39 5.45508L9.1 9.10008M9.1 9.10008L1.81 5.45508M9.1 9.10008V16.7951" stroke="#000712" stroke-width="1.5" stroke-linecap="round"/>
<rect x="12.3" y="9.59961" width="6.2" height="6.2" rx="3.1" fill="white"/>
<rect x="12.3" y="9.59961" width="6.2" height="6.2" rx="3.1" stroke="#000712"/>
<path d="M16.4 12.6997L15.4 12.6997M15.4 12.6997L14.4 12.6997M15.4 12.6997L15.4 11.6997M15.4 12.6997L15.4 13.6997" stroke="#000712" stroke-linecap="round"/>
</svg>
