<svg width="15" height="19" viewBox="0 0 15 19" fill="none" xmlns="http://www.w3.org/2000/svg">
<path fill-rule="evenodd" clip-rule="evenodd" d="M6.04886 0.247425C6.36193 0.570277 6.354 1.08579 6.03115 1.39886L2.99516 4.34286H14.0143C14.464 4.34286 14.8286 4.70743 14.8286 5.15714C14.8286 5.60686 14.464 5.97143 14.0143 5.97143H2.99516L6.03115 8.91542C6.354 9.22849 6.36193 9.74401 6.04886 10.0669C5.7358 10.3897 5.22028 10.3976 4.89743 10.0846L0.418857 5.74172C0.260699 5.58835 0.171432 5.37745 0.171432 5.15714C0.171432 4.93684 0.260699 4.72593 0.418857 4.57257L4.89743 0.22971C5.22028 -0.0833587 5.7358 -0.0754277 6.04886 0.247425ZM8.95114 8.93314C9.26421 8.61029 9.77973 8.60236 10.1026 8.91542L14.5811 13.2583C14.7393 13.4116 14.8286 13.6226 14.8286 13.8429C14.8286 14.0632 14.7393 14.2741 14.5811 14.4274L10.1026 18.7703C9.77973 19.0834 9.26421 19.0754 8.95114 18.7526C8.63807 18.4297 8.646 17.9142 8.96885 17.6011L12.0048 14.6571L0.985718 14.6571C0.536001 14.6571 0.171433 14.2926 0.171433 13.8429C0.171433 13.3931 0.536001 13.0286 0.985718 13.0286L12.0048 13.0286L8.96885 10.0846C8.646 9.77151 8.63807 9.25599 8.95114 8.93314Z" fill="currentColor"/>
</svg>
