<svg width="18" height="19" viewBox="0 0 18 19" fill="none" xmlns="http://www.w3.org/2000/svg">
<path fill-rule="evenodd" clip-rule="evenodd" d="M9 0.200195C8.49372 0.200195 8.02754 0.326016 7.51712 0.537106C7.02425 0.740935 6.45181 1.04135 5.73899 1.41543L4.00804 2.32378C3.13319 2.78288 2.43306 3.15028 1.89249 3.51128C1.33245 3.88529 0.901105 4.27909 0.586986 4.81253C0.273919 5.34418 0.133081 5.91988 0.0655437 6.60545C-1.22196e-05 7.27091 -6.74524e-06 8.08934 1.40699e-07 9.11862V9.28176C-6.74524e-06 10.311 -1.22196e-05 11.1295 0.0655437 11.7949C0.133081 12.4805 0.273919 13.0562 0.586986 13.5879C0.901105 14.1213 1.33245 14.5151 1.89249 14.8891C2.43306 15.2501 3.13318 15.6175 4.00803 16.0766L5.73891 16.9849C6.45177 17.359 7.02423 17.6594 7.51712 17.8633C8.02754 18.0744 8.49372 18.2002 9 18.2002C9.50628 18.2002 9.97246 18.0744 10.4829 17.8633C10.9757 17.6595 11.5482 17.359 12.261 16.985L13.9919 16.0766C14.8668 15.6175 15.5669 15.2501 16.1075 14.8891C16.6675 14.5151 17.0989 14.1213 17.413 13.5879C17.7261 13.0562 17.8669 12.4805 17.9345 11.7949C18 11.1295 18 10.3111 18 9.28178V9.11861C18 8.08934 18 7.27091 17.9345 6.60545C17.8669 5.91988 17.7261 5.34418 17.413 4.81253C17.0989 4.27909 16.6675 3.88529 16.1075 3.51128C15.5669 3.15028 14.8668 2.78288 13.9919 2.32378L12.261 1.41544C11.5482 1.04135 10.9758 0.740937 10.4829 0.537107C9.97246 0.326017 9.50628 0.200195 9 0.200195ZM6.29648 2.5411C7.04136 2.1502 7.56335 1.87695 7.99705 1.6976C8.41917 1.52302 8.71573 1.45601 9 1.45601C9.28427 1.45601 9.58082 1.52302 10.003 1.6976C10.4367 1.87696 10.9586 2.1502 11.7035 2.5411L13.3779 3.41979C14.2902 3.89855 14.9312 4.23582 15.4101 4.55563C15.6463 4.71341 15.832 4.85992 15.9819 5.00723L13.1934 6.40147L6.07726 2.65614L6.29648 2.5411ZM4.76762 3.34341L4.62207 3.41979C3.70976 3.89855 3.06882 4.23581 2.58992 4.55563C2.35366 4.71341 2.168 4.85992 2.01812 5.00724L9 8.49817L11.8107 7.09285L4.94011 3.47677C4.87336 3.44164 4.81556 3.39619 4.76762 3.34341ZM1.41294 6.10869C1.37066 6.28775 1.3387 6.49109 1.31531 6.72857C1.25652 7.32534 1.25581 8.08203 1.25581 9.15123V9.24916C1.25581 10.3184 1.25652 11.075 1.31531 11.6718C1.37281 12.2555 1.48204 12.6329 1.66912 12.9506C1.85515 13.2666 2.12423 13.5338 2.58992 13.8448C3.06882 14.1646 3.70976 14.5018 4.62207 14.9806L6.29648 15.8593C7.04136 16.2502 7.56335 16.5234 7.99705 16.7028C8.13399 16.7594 8.25771 16.8047 8.37209 16.8401V9.58826L1.41294 6.10869ZM9.6279 16.8401C9.74228 16.8047 9.86601 16.7594 10.003 16.7028C10.4367 16.5234 10.9586 16.2502 11.7035 15.8593L13.3779 14.9806C14.2902 14.5018 14.9312 14.1646 15.4101 13.8448C15.8758 13.5338 16.1449 13.2666 16.3309 12.9506C16.518 12.6329 16.6272 12.2555 16.6847 11.6718C16.7435 11.075 16.7442 10.3184 16.7442 9.24916V9.15123C16.7442 8.08203 16.7435 7.32534 16.6847 6.72857C16.6613 6.49109 16.6293 6.28775 16.5871 6.10869L13.8139 7.49524V10.0374C13.8139 10.3842 13.5328 10.6653 13.186 10.6653C12.8393 10.6653 12.5581 10.3842 12.5581 10.0374V8.12315L9.6279 9.58826V16.8401Z" fill="#000712"/>
</svg>
