<svg width="20" height="18" viewBox="0 0 20 18" fill="none" xmlns="http://www.w3.org/2000/svg">
<ellipse cx="10" cy="4.49978" rx="3.27273" ry="3.27273" stroke="currentColor" stroke-width="1.5"/>
<path d="M14.9091 6.95468C16.2647 6.95468 17.3636 6.0389 17.3636 4.90922C17.3636 3.77955 16.2647 2.86377 14.9091 2.86377" stroke="currentColor" stroke-width="1.5" stroke-linecap="round"/>
<path d="M5.0909 6.95468C3.73529 6.95468 2.63635 6.0389 2.63635 4.90922C2.63635 3.77955 3.73529 2.86377 5.0909 2.86377" stroke="currentColor" stroke-width="1.5" stroke-linecap="round"/>
<ellipse cx="9.99999" cy="13.4998" rx="4.90909" ry="3.27273" stroke="currentColor" stroke-width="1.5"/>
<path d="M16.5455 15.1363C17.9808 14.8216 19 14.0245 19 13.0909C19 12.1573 17.9808 11.3602 16.5455 11.0454" stroke="currentColor" stroke-width="1.5" stroke-linecap="round"/>
<path d="M3.45453 15.1363C2.01924 14.8216 0.999984 14.0245 0.999984 13.0909C0.999984 12.1573 2.01924 11.3602 3.45453 11.0454" stroke="currentColor" stroke-width="1.5" stroke-linecap="round"/>
</svg>
